<?xml version="1.0" encoding="UTF-8"?>
<svg version="1.1" xmlns="http://www.w3.org/2000/svg" width="964" height="964">
<!-- <path d="M0 0 C318.12 0 636.24 0 964 0 C964 318.12 964 636.24 964 964 C645.88 964 327.76 964 0 964 C0 645.88 0 327.76 0 0 Z " fill="#FEFEFE" transform="translate(0,0)"/> -->
<path d="M0 0 C3.23247466 1.12415256 6.48272648 2.1905171 9.73632812 3.25170898 C16.75783935 5.7102161 21.10235102 10.83867611 24.26391602 17.39599609 C28.42720428 30.30234285 29.00509028 42.78056042 28.82641602 56.20849609 C28.81243404 57.99730899 28.79917786 59.7861277 28.78662109 61.57495117 C28.74359671 66.68251106 28.66648689 71.78907271 28.57641602 76.89599609 C28.54523682 78.76916504 28.54523682 78.76916504 28.51342773 80.68017578 C28.36535715 88.09686688 28.0351266 95.49224636 27.57641602 102.89599609 C27.51067383 103.95778076 27.51067383 103.95778076 27.44360352 105.04101562 C27.13793891 109.90583308 26.80379826 114.76794528 26.44400024 119.62905884 C26.32630111 121.23322559 26.21266288 122.83769684 26.10360718 124.44247437 C23.69814042 159.2376271 8.25908017 187.61530773 -17.42358398 210.89599609 C-21.95401502 214.73906108 -26.66585842 218.34073069 -31.42358398 221.89599609 C-32.02283691 222.34539551 -32.62208984 222.79479492 -33.23950195 223.2578125 C-39.87513336 228.20267713 -46.55753758 232.79113395 -53.92749023 236.59912109 C-56.24061781 237.80093386 -58.44274082 239.11251251 -60.67358398 240.45849609 C-72.1031196 246.85655136 -86.59520612 251.11491821 -99.60717773 248.17724609 C-110.00370129 245.08200259 -119.86013314 241.13421284 -129.05639648 235.36083984 C-131.32418904 233.95750287 -133.62821807 232.7026987 -135.98608398 231.45849609 C-139.97178839 229.26357147 -143.4470305 226.68440029 -146.98608398 223.83349609 C-149.68166987 221.6908509 -152.45386658 219.67469628 -155.23608398 217.64599609 C-169.99265871 206.55983843 -181.94118718 193.7529228 -191.42358398 177.89599609 C-192.0068042 177.02358276 -192.0068042 177.02358276 -192.60180664 176.13354492 C-195.95538258 171.04988923 -198.11216963 165.96843231 -200.04858398 160.20849609 C-200.33475586 159.39960937 -200.62092773 158.59072266 -200.91577148 157.75732422 C-205.76184457 143.67067086 -207.19232247 129.97851708 -208.04858398 115.20849609 C-208.17441512 113.15989817 -208.30047567 111.11131432 -208.42675781 109.06274414 C-209.40492492 92.81730075 -210.07068806 76.57582772 -210.35620117 60.30371094 C-210.41564575 57.29745205 -210.5094719 54.29528224 -210.61889648 51.29052734 C-210.8617873 43.02651477 -210.23004069 35.27753695 -208.67358398 27.14599609 C-208.51672119 26.32309082 -208.3598584 25.50018555 -208.19824219 24.65234375 C-206.58729694 17.1655047 -203.88742151 11.51951955 -197.73608398 6.64599609 C-196.9484668 6.00146484 -196.16084961 5.35693359 -195.34936523 4.69287109 C-191.52804282 2.34599751 -187.70782274 1.15881146 -183.42358398 -0.10400391 C-182.45831787 -0.39645996 -181.49305176 -0.68891602 -180.49853516 -0.99023438 C-119.9627654 -19.03683476 -60.30058942 -21.05002821 0 0 Z " fill="#FDFDFD" transform="translate(572.423583984375,365.10400390625)"/>
<path d="M0 0 C3.23247466 1.12415256 6.48272648 2.1905171 9.73632812 3.25170898 C16.75783935 5.7102161 21.10235102 10.83867611 24.26391602 17.39599609 C28.42720428 30.30234285 29.00509028 42.78056042 28.82641602 56.20849609 C28.81243404 57.99730899 28.79917786 59.7861277 28.78662109 61.57495117 C28.74359671 66.68251106 28.66648689 71.78907271 28.57641602 76.89599609 C28.54523682 78.76916504 28.54523682 78.76916504 28.51342773 80.68017578 C28.36535715 88.09686688 28.0351266 95.49224636 27.57641602 102.89599609 C27.51067383 103.95778076 27.51067383 103.95778076 27.44360352 105.04101562 C27.13793891 109.90583308 26.80379826 114.76794528 26.44400024 119.62905884 C26.32630111 121.23322559 26.21266288 122.83769684 26.10360718 124.44247437 C23.69814042 159.2376271 8.25908017 187.61530773 -17.42358398 210.89599609 C-21.95401502 214.73906108 -26.66585842 218.34073069 -31.42358398 221.89599609 C-32.02283691 222.34539551 -32.62208984 222.79479492 -33.23950195 223.2578125 C-39.87513336 228.20267713 -46.55753758 232.79113395 -53.92749023 236.59912109 C-56.24061781 237.80093386 -58.44274082 239.11251251 -60.67358398 240.45849609 C-72.1031196 246.85655136 -86.59520612 251.11491821 -99.60717773 248.17724609 C-110.00370129 245.08200259 -119.86013314 241.13421284 -129.05639648 235.36083984 C-131.32418904 233.95750287 -133.62821807 232.7026987 -135.98608398 231.45849609 C-139.97178839 229.26357147 -143.4470305 226.68440029 -146.98608398 223.83349609 C-149.68166987 221.6908509 -152.45386658 219.67469628 -155.23608398 217.64599609 C-169.99265871 206.55983843 -181.94118718 193.7529228 -191.42358398 177.89599609 C-192.0068042 177.02358276 -192.0068042 177.02358276 -192.60180664 176.13354492 C-195.95538258 171.04988923 -198.11216963 165.96843231 -200.04858398 160.20849609 C-200.33475586 159.39960937 -200.62092773 158.59072266 -200.91577148 157.75732422 C-205.76184457 143.67067086 -207.19232247 129.97851708 -208.04858398 115.20849609 C-208.17441512 113.15989817 -208.30047567 111.11131432 -208.42675781 109.06274414 C-209.40492492 92.81730075 -210.07068806 76.57582772 -210.35620117 60.30371094 C-210.41564575 57.29745205 -210.5094719 54.29528224 -210.61889648 51.29052734 C-210.8617873 43.02651477 -210.23004069 35.27753695 -208.67358398 27.14599609 C-208.51672119 26.32309082 -208.3598584 25.50018555 -208.19824219 24.65234375 C-206.58729694 17.1655047 -203.88742151 11.51951955 -197.73608398 6.64599609 C-196.9484668 6.00146484 -196.16084961 5.35693359 -195.34936523 4.69287109 C-191.52804282 2.34599751 -187.70782274 1.15881146 -183.42358398 -0.10400391 C-182.45831787 -0.39645996 -181.49305176 -0.68891602 -180.49853516 -0.99023438 C-119.9627654 -19.03683476 -60.30058942 -21.05002821 0 0 Z M-140.51342773 17.99365234 C-143.90217882 18.80088809 -147.28820271 19.38802923 -150.73608398 19.89599609 C-160.90998157 21.52606808 -172.21412795 24.3859934 -180.42358398 30.89599609 C-184.6610247 36.79753493 -184.98944148 41.42231606 -184.88452148 48.56787109 C-184.88451141 49.59489639 -184.88450134 50.62192169 -184.88449097 51.68006897 C-184.87750933 55.00255966 -184.83977938 58.32376648 -184.79858398 61.64599609 C-184.782202 63.93725282 -184.76625277 66.22851267 -184.75073242 68.51977539 C-184.612784 84.0445827 -184.20006387 99.46088963 -182.42358398 114.89599609 C-182.28936035 116.11561035 -182.15513672 117.33522461 -182.0168457 118.59179688 C-181.57646873 122.48886486 -181.10175212 126.37995828 -180.61108398 130.27099609 C-180.47025391 131.44251221 -180.32942383 132.61402832 -180.18432617 133.82104492 C-178.73255943 144.40697038 -175.6866717 154.17240963 -169.42358398 162.89599609 C-169.27920898 163.57662109 -169.13483398 164.25724609 -168.98608398 164.95849609 C-168.09597557 168.02442509 -165.66646957 169.67230782 -163.42358398 171.89599609 C-161.94311714 173.6694175 -160.48475907 175.46151918 -159.04858398 177.27099609 C-153.28107878 184.35058513 -147.24549502 190.15989339 -140.11108398 195.83349609 C-139.48758057 196.33107422 -138.86407715 196.82865234 -138.22167969 197.34130859 C-135.18192887 200.00289146 -135.18192887 200.00289146 -131.42358398 200.89599609 C-131.42358398 201.55599609 -131.42358398 202.21599609 -131.42358398 202.89599609 C-127.61930906 205.0973827 -127.61930906 205.0973827 -123.42358398 205.89599609 C-123.42358398 206.55599609 -123.42358398 207.21599609 -123.42358398 207.89599609 C-103.41188959 219.23189899 -103.41188959 219.23189899 -81.29858398 219.45849609 C-71.01295147 215.95674457 -61.43696192 210.91356064 -52.42358398 204.89599609 C-51.43358398 204.56599609 -50.44358398 204.23599609 -49.42358398 203.89599609 C-48.28811954 202.76053165 -47.1573425 201.62005263 -46.04858398 200.45849609 C-44.09814823 198.5830771 -42.00583316 196.98330315 -39.86108398 195.33349609 C-30.57514421 187.97117127 -22.60137851 179.79109814 -15.94702148 169.97802734 C-14.42358398 167.89599609 -14.42358398 167.89599609 -12.42358398 166.89599609 C-11.19962542 164.55720298 -10.07264663 162.23500716 -8.98608398 159.83349609 C-8.68637695 159.18960938 -8.38666992 158.54572266 -8.07788086 157.88232422 C-7.16579808 155.89790116 -6.29080468 153.9003866 -5.42358398 151.89599609 C-4.89764648 150.69974609 -4.37170898 149.50349609 -3.82983398 148.27099609 C-1.68194305 142.37876054 -1.12067868 136.15059088 -0.36108398 129.95849609 C-0.23509827 128.94733231 -0.23509827 128.94733231 -0.10656738 127.91574097 C2.63982256 105.68004607 3.73455375 83.40757478 3.92687988 61.01290894 C3.94307768 59.24406509 3.965175 57.47526421 3.99353027 55.70657349 C4.02933301 53.22634812 4.03732176 50.74754375 4.03735352 48.26708984 C4.05162384 47.53823578 4.06589417 46.80938171 4.08059692 46.05844116 C4.02349818 39.50196605 1.89721204 34.19377596 -2.78686523 29.55615234 C-7.65338786 26.49204551 -13.01752488 24.78493674 -18.42358398 22.89599609 C-19.25116211 22.60595703 -20.07874023 22.31591797 -20.93139648 22.01708984 C-27.80066269 19.79331045 -34.87499432 18.56990778 -41.97338867 17.32714844 C-44.71117529 16.84538965 -47.44617794 16.34915183 -50.18139648 15.85302734 C-52.19951822 15.49174962 -54.21774705 15.13106962 -56.23608398 14.77099609 C-57.17798584 14.60027588 -58.1198877 14.42955566 -59.09033203 14.25366211 C-86.27766031 9.47464885 -113.78242924 11.58682073 -140.51342773 17.99365234 Z " fill="#010101" transform="translate(572.423583984375,365.10400390625)"/>
<path d="M0 0 C-2.90820922 17.08572915 -14.16249759 30.16654084 -28 40 C-36.55557044 45.4915326 -44.10210433 48.92647841 -54.203125 50.40234375 C-55.05215393 50.52753891 -55.90118286 50.65273407 -56.77593994 50.78172302 C-69.8298065 52.62435969 -82.96660793 53.83140147 -96.08544922 55.10717773 C-99.93779304 55.48189154 -103.78909522 55.86630545 -107.64021587 56.25336075 C-124.02612921 57.89556963 -140.38086217 59.27161397 -156.8238678 60.21214294 C-167.11928278 60.82520749 -177.37290102 61.71789656 -187.63671875 62.7265625 C-188.41959637 62.80338949 -189.20247398 62.88021648 -190.00907516 62.95937157 C-196.38454088 63.58718252 -202.75861606 64.22867898 -209.13256836 64.87164307 C-213.95560074 65.3577585 -218.77910057 65.83863181 -223.60334206 66.312603 C-225.80875656 66.53133041 -228.01332153 66.75746491 -230.21794128 66.98403931 C-238.50206926 67.81220302 -246.6735238 68.18779386 -255 68 C-254.9889624 67.10128174 -254.9779248 66.20256348 -254.96655273 65.27661133 C-254.93194637 62.27410774 -254.90838766 59.27168768 -254.89013672 56.26904297 C-254.87537776 54.30038843 -254.84993839 52.3318231 -254.82421875 50.36328125 C-254.78734987 43.10011096 -255.21596513 36.31161278 -256.66455078 29.18652344 C-256.77524902 28.4649707 -256.88594727 27.74341797 -257 27 C-254.93391439 24.93391439 -250.76931285 25.36745644 -247.91796875 25.09765625 C-246.6546447 24.97371742 -246.6546447 24.97371742 -245.36579895 24.84727478 C-243.55926153 24.67116191 -241.75250415 24.4972937 -239.94555664 24.32543945 C-237.2918683 24.07244996 -234.6390903 23.81132671 -231.98632812 23.54882812 C-222.99858376 22.67393525 -214.01401605 21.91729141 -205.00318909 21.32200623 C-188.8450749 20.24998434 -172.82074556 18.46931319 -156.75 16.5 C-128.21252903 13.02256231 -128.21252903 13.02256231 -114.89453125 12 C-101.5159351 10.96886514 -88.24011933 9.23532095 -74.9375 7.5 C-59.61511239 5.50418747 -44.32763818 3.64406309 -28.921875 2.42431641 C-23.07483863 1.94956576 -17.27964981 1.18863381 -11.47265625 0.3671875 C-7.60419381 -0.04185127 -3.88753792 -0.05974262 0 0 Z " fill="#010101" transform="translate(868,363)"/>
<path d="M0 0 C28.4375748 1.98153597 56.58584764 5.26866483 84.82055664 9.13110352 C97.18765011 10.80947858 109.50861331 12.30641472 121.954422 13.24671936 C129.74004119 13.85064516 137.47943126 14.70969443 145.23046875 15.65625 C146.45283234 15.80537338 147.67519592 15.95449677 148.93460083 16.10813904 C153.93156626 16.72183265 158.92767995 17.34207994 163.9230957 17.96826172 C181.22199374 20.12793288 198.46729199 21.70757014 215.86581421 22.7956543 C222.77519541 23.24613887 229.66845721 23.86081723 236.5625 24.5 C237.9381465 24.61854236 239.31379757 24.7370316 240.68945312 24.85546875 C241.98947266 24.97535156 243.28949219 25.09523438 244.62890625 25.21875 C245.76400635 25.32123047 246.89910645 25.42371094 248.06860352 25.52929688 C250.80237085 25.96826609 252.6381843 26.59752569 255 28 C254.8570752 28.61786377 254.71415039 29.23572754 254.56689453 29.87231445 C252.8661444 38.0203187 252.76726604 45.8878412 252.875 54.1875 C252.8850607 55.53449847 252.89418103 56.88150431 252.90234375 58.22851562 C252.92569404 61.48588055 252.96024097 64.74280706 253 68 C240.58891127 68.22382017 228.48146998 67.59907396 216.140625 66.3203125 C214.37742982 66.14483369 212.6141418 65.97028559 210.85076904 65.79660034 C206.24543005 65.34116697 201.64111653 64.87616854 197.03704834 64.40808105 C188.84353486 63.57586426 180.64871237 62.75683194 172.453125 61.9453125 C171.12204114 61.81307848 171.12204114 61.81307848 169.7640667 61.67817307 C157.38304073 60.45352961 145.01637771 59.46178142 132.59797668 58.70068359 C120.4039838 57.93957081 108.26104611 56.77094196 96.11010742 55.50537109 C92.40708646 55.12185008 88.70270991 54.75399872 84.99804688 54.38671875 C74.02419067 53.27245111 63.1084225 52.03593216 52.2578125 50.02734375 C51.43723862 49.87858795 50.61666473 49.72983215 49.77122498 49.5765686 C31.46676771 45.95225671 17.43611452 34.10796089 7 19 C2.99272977 12.7391883 0.28258498 7.48850191 0 0 Z " fill="#010101" transform="translate(97,363)"/>
<path d="M0 0 C10.56 0 21.12 0 32 0 C39.09821429 16.875 39.09821429 16.875 40.5 22 C41.78002945 26.67210748 43.62219587 31.04406315 45.5 35.5 C47.37780413 39.95593685 49.21997055 44.32789252 50.5 49 C51.76464157 53.61083603 53.57889248 57.91723563 55.4375 62.3125 C58.03697438 68.45977802 60.17040511 74.58329349 62.03125 81 C63.30994395 84.95982641 65.0161653 88.63794096 66.8515625 92.3671875 C68.2230959 95.51145116 69.06611277 98.69979701 70 102 C71.1893284 105.31572907 72.48976708 108.58931407 73.7890625 111.86328125 C75.75763665 116.96367791 76.78298864 121.52344888 78 127 C67.77 127 57.54 127 47 127 C46.071875 124.73125 45.14375 122.4625 44.1875 120.125 C43.90156982 119.43293457 43.61563965 118.74086914 43.32104492 118.02783203 C41.1731106 112.71479082 39.66898407 107.56328025 38 102 C22.49 101.67 6.98 101.34 -9 101 C-9.66 103.97 -10.32 106.94 -11 110 C-11.97940398 112.34205301 -12.98034573 114.67518826 -14 117 C-14.99 120.3 -15.98 123.6 -17 127 C-27.23 127 -37.46 127 -48 127 C-41.09334671 106.957163 -41.09334671 106.957163 -37.046875 97.58984375 C-36.0252375 95.06243457 -35.23658728 92.56056915 -34.5 89.9375 C-33.49376901 86.37612066 -32.21265864 83.15545825 -30.625 79.8125 C-28.33256207 74.95471486 -26.64824257 70.03237518 -25.02270508 64.91723633 C-23.18886261 59.28599289 -20.88729031 53.91858244 -18.41064453 48.54223633 C-16.53260998 44.42303789 -15.21858844 40.35279792 -14 36 C-13.04760261 33.54605129 -12.07544195 31.11552091 -11.0625 28.6875 C-9.31460378 24.42546339 -7.67436192 20.19275115 -6.4375 15.75 C-5 11 -5 11 0 0 Z " fill="#020202" transform="translate(465,403)"/>
<path d="M0 0 C-0.82512892 6.62044613 -3.59630362 11.35681692 -7 17 C-7.61294922 18.04027344 -7.61294922 18.04027344 -8.23828125 19.1015625 C-14.67489187 28.78636981 -25.30307214 35.5800172 -35.625 40.5 C-36.60786987 40.97083008 -36.60786987 40.97083008 -37.6105957 41.45117188 C-47.6028807 45.93085231 -57.86611623 47.40685575 -68.71484375 47.93359375 C-80.72159044 48.64294436 -92.66471821 49.68380467 -104.62890625 50.91015625 C-105.47839214 50.99668835 -106.32787804 51.08322044 -107.20310593 51.17237473 C-114.21360118 51.88677068 -121.22292496 52.61236049 -128.2321167 53.3394165 C-134.34296622 53.97290162 -140.45423595 54.60203463 -146.56640625 55.22265625 C-147.39782009 55.30708166 -148.22923393 55.39150707 -149.08584213 55.47849083 C-159.78321515 56.55756925 -170.45582706 57.50005674 -181.20581055 57.86474609 C-187.14910485 58.07661052 -193.07120929 58.5386537 -199 59 C-198.76405073 53.99988351 -198.52635581 48.99986597 -198.28515625 44 C-198.0958711 40.06286894 -197.91687328 36.12547499 -197.74609375 32.1875 C-197.66409963 30.37499832 -197.58206976 28.56249826 -197.5 26.75 C-197.46463135 25.88729492 -197.4292627 25.02458984 -197.39282227 24.13574219 C-197.11299346 18.11299346 -197.11299346 18.11299346 -196 17 C-193.93476824 16.70837955 -191.860614 16.47980725 -189.78491211 16.27563477 C-189.13391037 16.21042633 -188.48290863 16.1452179 -187.81217957 16.07803345 C-185.63432841 15.86122187 -183.45589088 15.65110138 -181.27734375 15.44140625 C-179.7411528 15.29091484 -178.20498476 15.14018945 -176.6688385 14.98924255 C-173.41972651 14.67107469 -170.17030838 14.35628195 -166.9206543 14.04370117 C-162.85822334 13.65261943 -158.79671863 13.25275262 -154.73540401 12.85026646 C-139.14739029 11.30959748 -123.57725697 9.89400452 -107.9375 9 C-91.04709524 8.03402193 -74.24600657 6.38203264 -57.41717529 4.67602539 C-51.1201052 4.03814079 -44.82230759 3.40766113 -38.52398491 2.78227425 C-36.37658621 2.56772848 -34.22967497 2.34876677 -32.08277893 2.1292572 C-21.44792891 1.05761031 -10.69755065 0 0 0 Z " fill="#010101" transform="translate(810,430)"/>
<path d="M0 0 C1.71026367 0.43807983 1.71026367 0.43807983 3.45507812 0.88500977 C10.78381986 2.50626861 18.26183519 3.09514599 25.71875 3.83984375 C27.36461752 4.00781867 29.01045017 4.17613556 30.65625 4.34477234 C35.03240303 4.79130061 39.40929752 5.23008661 43.78646851 5.66651154 C46.51218044 5.93871641 49.23768023 6.21296267 51.96313477 6.48773193 C71.86037106 8.49128982 91.74813282 10.46854017 111.70593262 11.76870728 C128.02492397 12.83423084 144.29643434 14.36284947 160.57467651 15.91747284 C162.73403329 16.12347677 164.89349352 16.32836491 167.05297852 16.53302002 C171.09300976 16.91636991 175.13249069 17.30520291 179.171875 17.6953125 C181.00471039 17.87012146 181.00471039 17.87012146 182.87457275 18.04846191 C184.00489929 18.15895874 185.13522583 18.26945557 186.29980469 18.38330078 C187.28422546 18.47862091 188.26864624 18.57394104 189.28289795 18.67214966 C191.8742711 18.98482933 194.44051849 19.4881037 197 20 C197.99 33.86 198.98 47.72 200 62 C186.25 60.5625 186.25 60.5625 182.05566406 60.11547852 C175.9167396 59.48846147 169.81347774 58.96511362 163.64604187 58.73948669 C153.15058417 58.34423998 142.74505147 57.32052217 132.30859375 56.1875 C131.51063763 56.10090055 130.7126815 56.01430111 129.89054489 55.92507744 C124.07197913 55.29133543 118.25465902 54.64650696 112.4375 54 C105.81191329 53.26421419 99.18581647 52.53341171 92.55859375 51.8125 C91.76838396 51.72622723 90.97817417 51.63995445 90.16401863 51.55106735 C80.6354355 50.51651261 71.12259816 49.55358872 61.53489685 49.29443359 C43.9457411 48.76984449 27.97130567 40.27563318 15.3125 28.5 C14.549375 27.675 13.78625 26.85 13 26 C12.53078125 25.52433594 12.0615625 25.04867188 11.578125 24.55859375 C5.35734055 17.90491966 0.41919013 9.2221829 0 0 Z " fill="#010101" transform="translate(153,428)"/>
<path d="M0 0 C-1.28343279 2.00573682 -2.5760369 4.00436119 -3.875 6 C-4.23980469 6.57234375 -4.60460937 7.1446875 -4.98046875 7.734375 C-5.93474767 9.19181916 -6.96277587 10.60037225 -8 12 C-8.66 12 -9.32 12 -10 12 C-10.23460937 12.74636719 -10.46921875 13.49273437 -10.7109375 14.26171875 C-15.7994002 25.07084709 -35.01438384 31.67752744 -45.6875 35.75 C-55.23673116 38.74662066 -65.15077201 39.71834246 -75.05078125 40.9609375 C-80.40179395 41.63734257 -85.72220136 42.40724631 -91.04296875 43.2890625 C-91.70995789 43.39940323 -92.37694702 43.50974396 -93.06414795 43.62342834 C-94.41192647 43.84657675 -95.75970479 44.06972636 -97.10748291 44.2928772 C-114.23834242 47.11295198 -131.60493342 49.27141239 -149 49 C-148.41128256 44.27590152 -147.03709625 40.47240291 -145.125 36.125 C-142.45684057 29.85434945 -140.93429885 23.75017483 -139.93798828 17.01611328 C-139.68101664 15.33461578 -139.3474378 13.66515923 -139 12 C-135.79543166 10.39771583 -132.25500132 10.42762668 -128.7277832 10.09204102 C-127.87020416 10.00732544 -127.01262512 9.92260986 -126.12905884 9.83532715 C-123.27001788 9.55408364 -120.41043986 9.27879364 -117.55078125 9.00390625 C-115.54280131 8.80854938 -113.53484162 8.6129842 -111.52690125 8.41722107 C-107.29089278 8.00521519 -103.05460639 7.59622052 -98.81811523 7.18920898 C-93.48358441 6.67641163 -88.14986824 6.1556486 -82.81633186 5.63262367 C-60.53921922 3.45206473 -38.29124502 1.45010798 -15.94125366 0.20040894 C-12.28493444 -0.0487226 -8.65550304 -0.44933899 -5.01972961 -0.90623474 C-3 -1 -3 -1 0 0 Z " fill="#020202" transform="translate(747,494)"/>
<path d="M0 0 C0.76296387 0.05913574 1.52592773 0.11827148 2.31201172 0.17919922 C8.20976998 0.63478572 14.1079388 1.08047381 20.0078125 1.5078125 C35.55965201 2.67361463 51.076934 4.07875303 66.5859375 5.71875 C67.31685734 5.79592129 68.04777718 5.87309258 68.8008461 5.95260239 C76.22043817 6.7368051 83.63901996 7.52964493 91.05575752 8.34041405 C106.69088746 10.04592953 122.26921566 11.54374494 138 12 C138.25571777 13.2485376 138.51143555 14.4970752 138.77490234 15.78344727 C140.98084002 26.47441284 143.65347933 36.4493638 148.65234375 46.234375 C150 49 150 49 150 51 C125.52896405 50.28722155 101.68994505 46.35595629 77.578125 42.36410522 C70.52639622 41.20923707 63.47801888 40.25949121 56.37280273 39.50439453 C36.19064937 36.48620207 17.63579295 24.69086861 5 9 C0 1.89044289 0 1.89044289 0 0 Z " fill="#020202" transform="translate(217,493)"/>
<path d="M0 0 C2.74044879 3.2488219 4.0519514 6.4353088 5.4375 10.4375 C5.86675781 11.67628906 6.29601562 12.91507812 6.73828125 14.19140625 C8.28040029 18.79200283 9.69174566 23.43081885 11.0859375 28.078125 C11.88730942 30.63977542 12.77410214 33.12597184 13.75 35.625 C15 39 15 39 15 42 C5.43 42 -4.14 42 -14 42 C-10.62610983 28.50443933 -10.62610983 28.50443933 -8.80859375 23.7890625 C-8.42123047 22.77199219 -8.03386719 21.75492187 -7.63476562 20.70703125 C-7.23966797 19.68996094 -6.84457031 18.67289062 -6.4375 17.625 C-5.64362814 15.55503363 -4.85063124 13.48473145 -4.05859375 11.4140625 C-3.69620605 10.46950195 -3.33381836 9.52494141 -2.96044922 8.55175781 C-1.89642625 5.72482135 -0.91502951 2.87863338 0 0 Z " fill="#FAFAFA" transform="translate(479,437)"/>
</svg>
