<?xml version="1.0" encoding="utf-8"?>
<!-- Generator: Adobe Illustrator 26.5.0, SVG Export Plug-In . SVG Version: 6.00 Build 0)  -->
<svg version="1.1" xmlns="http://www.w3.org/2000/svg" xmlns:xlink="http://www.w3.org/1999/xlink" x="0px" y="0px"
	 viewBox="0 0 489.99 90.64" style="enable-background:new 0 0 489.99 90.64;" xml:space="preserve">
<style type="text/css">
	.st0{fill:#5EB3E4;}
	.st1{fill:#003DA6;}
	.st2{fill:#56AEDC;}
	.st3{fill:#63BDE3;}
	.st4{fill:#528EB4;}
	.st5{fill:#5BA2C8;}
	.st6{fill:#D1EDFA;}
	.st7{fill:#68C5EA;}
	.st8{fill:#ABE0F8;}
	.st9{fill:#FFFFFF;}
	.st10{fill:#66CDF3;}
	.st11{fill:#66CCF2;}
	.st12{fill:#66CBF1;}
	.st13{fill:#66CAF0;}
	.st14{fill:#65C9F0;}
	.st15{fill:#65C8EF;}
	.st16{fill:#65C7EE;}
	.st17{fill:#64C6EE;}
	.st18{fill:#64C5ED;}
	.st19{fill:#63C5ED;}
	.st20{fill:#63C4EC;}
	.st21{fill:#62C3EC;}
	.st22{fill:#62C2EB;}
	.st23{fill:#61C1EA;}
	.st24{fill:#61C0EA;}
	.st25{fill:#60BFE9;}
	.st26{fill:#5FBEE8;}
	.st27{fill:#5FBDE8;}
	.st28{fill:#5EBDE7;}
	.st29{fill:#5EBCE7;}
	.st30{fill:#5DBBE6;}
	.st31{fill:#5DBAE6;}
	.st32{fill:#5CBAE5;}
	.st33{fill:#5CB9E5;}
	.st34{fill:#5CB8E4;}
	.st35{fill:#5BB8E4;}
	.st36{fill:#5BB7E3;}
	.st37{fill:#5AB6E3;}
	.st38{fill:#5AB5E3;}
	.st39{fill:#59B5E2;}
	.st40{fill:#59B4E2;}
	.st41{fill:#58B3E1;}
	.st42{fill:#58B2E0;}
	.st43{fill:#57B1E0;}
	.st44{fill:#57B1DF;}
	.st45{fill:#56B0DF;}
	.st46{fill:#56AFDE;}
	.st47{fill:#6ACEF2;}
	.st48{fill:#69CDF1;}
	.st49{fill:#69CBF1;}
	.st50{fill:#69CAF0;}
	.st51{fill:#68C9EF;}
	.st52{fill:#68C8EF;}
	.st53{fill:#67C8EE;}
	.st54{fill:#67C7ED;}
	.st55{fill:#66C6ED;}
	.st56{fill:#66C5EC;}
	.st57{fill:#65C4EC;}
	.st58{fill:#65C4EB;}
	.st59{fill:#64C3EB;}
	.st60{fill:#64C2EA;}
	.st61{fill:#63C1EA;}
	.st62{fill:#62C0E9;}
	.st63{fill:#62BFE9;}
	.st64{fill:#61BEE8;}
	.st65{fill:#60BEE8;}
	.st66{fill:#60BDE7;}
	.st67{fill:#5FBCE7;}
	.st68{fill:#5FBBE6;}
	.st69{fill:#5EBBE6;}
	.st70{fill:#5EBAE5;}
	.st71{fill:#5DB9E5;}
	.st72{fill:#5DB8E4;}
	.st73{fill:#5CB7E3;}
	.st74{fill:#5BB6E3;}
	.st75{fill:#5AB6E2;}
	.st76{fill:#5AB5E2;}
	.st77{fill:#59B3E1;}
	.st78{fill:#448FC9;}
	.st79{fill:#4F7EA6;}
	.st80{fill:#466C93;}
	.st81{fill:#456B92;}
	.st82{fill:#456A91;}
	.st83{fill:#446991;}
	.st84{fill:#446990;}
	.st85{fill:#446890;}
	.st86{fill:#43688F;}
	.st87{fill:#43678F;}
	.st88{fill:#42668E;}
	.st89{fill:#42658D;}
	.st90{fill:#41648D;}
	.st91{fill:#41648C;}
	.st92{fill:#41638C;}
	.st93{fill:#40638B;}
	.st94{fill:#40628B;}
	.st95{fill:#40628A;}
	.st96{fill:#3F618A;}
	.st97{fill:#3F6089;}
	.st98{fill:#D1EEFC;}
	.st99{fill:#67C4E9;}
	.st100{fill:#66C3E8;}
	.st101{fill:#66C2E8;}
	.st102{fill:#65C1E7;}
	.st103{fill:#65C0E7;}
	.st104{fill:#64BFE7;}
	.st105{fill:#64BFE6;}
	.st106{fill:#63BEE6;}
	.st107{fill:#63BDE5;}
	.st108{fill:#62BDE5;}
	.st109{fill:#62BCE5;}
	.st110{fill:#62BBE4;}
	.st111{fill:#61BAE4;}
	.st112{fill:#61BAE3;}
	.st113{fill:#60B9E3;}
	.st114{fill:#60B8E3;}
	.st115{fill:#60B8E2;}
	.st116{fill:#5FB7E2;}
	.st117{fill:#5FB6E2;}
	.st118{fill:#5EB6E1;}
	.st119{fill:#5EB5E1;}
	.st120{fill:#5DB4E0;}
	.st121{fill:#5DB3E0;}
	.st122{fill:#5CB2DF;}
	.st123{fill:#5CB1DF;}
	.st124{fill:#5BB0DE;}
	.st125{fill:#5AAFDD;}
	.st126{fill:#5AAEDD;}
	.st127{fill:#59ADDC;}
	.st128{fill:#59ACDC;}
	.st129{fill:#58ACDC;}
	.st130{fill:#58ABDB;}
	.st131{fill:#58AADB;}
	.st132{fill:#57AADA;}
	.st133{fill:#57A9DA;}
	.st134{fill:#56A8DA;}
	.st135{fill:#56A8D9;}
	.st136{fill:#5CA6CA;}
	.st137{fill:#5CA7CB;}
	.st138{fill:#5CA8CC;}
	.st139{fill:#5CA8CD;}
	.st140{fill:#5DA9CD;}
	.st141{fill:#5DAACE;}
	.st142{fill:#5DAACF;}
	.st143{fill:#5DABCF;}
	.st144{fill:#5DACD0;}
	.st145{fill:#5EACD1;}
	.st146{fill:#5EADD2;}
	.st147{fill:#5EAED2;}
	.st148{fill:#5EAED3;}
	.st149{fill:#5EAFD4;}
	.st150{fill:#5FB0D4;}
	.st151{fill:#5FB0D5;}
	.st152{fill:#5FB1D6;}
	.st153{fill:#5FB2D7;}
	.st154{fill:#60B3D8;}
	.st155{fill:#60B4D9;}
	.st156{fill:#60B5DA;}
	.st157{fill:#60B6DB;}
	.st158{fill:#60B6DC;}
	.st159{fill:#61B7DC;}
	.st160{fill:#61B8DD;}
	.st161{fill:#61B8DE;}
	.st162{fill:#61B9DF;}
	.st163{fill:#62BADF;}
	.st164{fill:#62BBE0;}
	.st165{fill:#62BBE1;}
	.st166{fill:#62BCE2;}
	.st167{fill:#62BDE3;}
	.st168{fill:none;stroke:#FFFFFF;stroke-width:0.1;stroke-miterlimit:10;}
	.st169{fill:none;stroke:#FFFFFF;stroke-miterlimit:10;}
	.st170{fill:none;stroke:#D1EDFA;stroke-miterlimit:10;}
	.st171{fill:#D1EDFA;stroke:#D1EDFA;stroke-width:0.5;stroke-miterlimit:10;}
</style>
<g id="Layer_1">
	<g>
		<path class="st0" d="M131.25,78.36c1.94,0.66,2.91,2.09,2.91,4.29c0,2.97-2.14,4.45-6.42,4.45h-13.52V70.14h13.71
			c1.72,0,3.07,0.42,4.05,1.27c0.98,0.84,1.48,1.97,1.48,3.37C133.46,76.32,132.72,77.52,131.25,78.36z M127.97,77.24
			c0.78,0,1.43-0.22,1.96-0.67c0.52-0.45,0.79-0.99,0.79-1.64c0-0.69-0.23-1.24-0.7-1.65c-0.47-0.41-1.11-0.61-1.92-0.61h-11.06
			v4.57H127.97z M127.76,84.57c2.34,0,3.51-0.77,3.51-2.32c0-1.66-1.02-2.48-3.07-2.48h-11.18v4.8H127.76z"/>
		<path class="st0" d="M156.56,87.1h-2.81V70.14h2.81V87.1z"/>
		<path class="st0" d="M197.89,78.6c0,2.78-1.14,5.03-3.42,6.75c-2,1.5-4.48,2.25-7.45,2.25c-3,0-5.5-0.76-7.5-2.27
			c-2.28-1.72-3.42-3.96-3.42-6.72c0-2.72,1.16-4.95,3.47-6.7c2.03-1.53,4.51-2.3,7.45-2.3c2.95,0,5.43,0.77,7.43,2.3
			C196.75,73.64,197.89,75.88,197.89,78.6z M194.97,78.6c0-1.98-0.84-3.59-2.53-4.83c-1.45-1.06-3.26-1.59-5.41-1.59
			c-2.36,0-4.28,0.61-5.76,1.82c-1.48,1.21-2.23,2.74-2.23,4.6c0,1.92,0.73,3.47,2.18,4.65c1.45,1.18,3.39,1.77,5.81,1.77
			c2.41,0,4.33-0.59,5.78-1.78C194.24,82.05,194.97,80.5,194.97,78.6z"/>
		<path class="st0" d="M232.32,74.12c-2.52-1.28-5.08-1.92-7.69-1.92c-1.73,0-3.06,0.2-3.98,0.61c-0.92,0.41-1.38,0.97-1.38,1.69
			c0,0.75,0.49,1.3,1.48,1.64c0.7,0.25,1.85,0.42,3.44,0.51c2.34,0.16,3.89,0.28,4.64,0.38c2.12,0.28,3.69,0.8,4.71,1.57
			c1.02,0.77,1.52,1.85,1.52,3.26c0,1.8-0.8,3.19-2.39,4.17s-3.88,1.48-6.87,1.48c-4.33,0-7.69-0.95-10.1-2.86l1.55-2.04
			c2.66,1.63,5.51,2.44,8.58,2.44c1.98,0,3.52-0.27,4.62-0.82c1.05-0.53,1.57-1.26,1.57-2.18c0-1.08-0.69-1.8-2.06-2.16
			c-0.72-0.19-2.66-0.38-5.81-0.59c-2.8-0.19-4.76-0.56-5.88-1.12c-1.31-0.66-1.97-1.76-1.97-3.3c0-1.59,0.75-2.85,2.24-3.77
			c1.49-0.92,3.6-1.38,6.32-1.38c3.66,0,6.72,0.84,9.19,2.51L232.32,74.12z"/>
		<path class="st0" d="M274,74l-2.55,0.91c-1.72-1.83-4.13-2.74-7.22-2.74c-2.34,0-4.25,0.6-5.73,1.8c-1.48,1.2-2.21,2.73-2.21,4.59
			c0,1.92,0.73,3.47,2.19,4.65c1.46,1.18,3.43,1.77,5.92,1.77c3,0,5.36-0.93,7.08-2.79l2.41,1.34c-1.22,1.42-2.6,2.45-4.14,3.08
			c-1.54,0.63-3.38,0.95-5.52,0.95c-3,0-5.49-0.75-7.48-2.25c-2.27-1.72-3.4-3.97-3.4-6.75c0-2.73,1.15-4.97,3.44-6.7
			c2-1.51,4.48-2.27,7.43-2.27C268.48,69.6,271.74,71.07,274,74z"/>
		<path class="st0" d="M296.29,87.1h-2.81V70.14h2.81V87.1z"/>
		<path class="st0" d="M334.48,87.1h-17.76V70.14h17.11v2.53h-14.29v4.36h9.94v2.53h-9.94v5.01h14.95V87.1z"/>
		<path class="st0" d="M372.75,87.1h-3.5L356.3,73.19V87.1h-2.81V70.14h3.49l12.96,13.92V70.14h2.81V87.1z"/>
		<path class="st0" d="M412.98,74l-2.55,0.91c-1.72-1.83-4.12-2.74-7.22-2.74c-2.34,0-4.25,0.6-5.73,1.8
			c-1.48,1.2-2.21,2.73-2.21,4.59c0,1.92,0.73,3.47,2.19,4.65c1.46,1.18,3.43,1.77,5.92,1.77c3,0,5.36-0.93,7.08-2.79l2.41,1.34
			c-1.22,1.42-2.6,2.45-4.14,3.08c-1.54,0.63-3.38,0.95-5.52,0.95c-3,0-5.49-0.75-7.48-2.25c-2.27-1.72-3.4-3.97-3.4-6.75
			c0-2.73,1.15-4.97,3.44-6.7c2-1.51,4.48-2.27,7.43-2.27C407.46,69.6,410.72,71.07,412.98,74z"/>
		<path class="st0" d="M450.22,87.1h-17.76V70.14h17.11v2.53h-14.29v4.36h9.94v2.53h-9.94v5.01h14.95V87.1z"/>
		<path class="st0" d="M484.1,74.12c-2.52-1.28-5.08-1.92-7.69-1.92c-1.73,0-3.06,0.2-3.98,0.61c-0.92,0.41-1.38,0.97-1.38,1.69
			c0,0.75,0.49,1.3,1.48,1.64c0.7,0.25,1.85,0.42,3.44,0.51c2.34,0.16,3.89,0.28,4.64,0.38c2.12,0.28,3.69,0.8,4.71,1.57
			c1.02,0.77,1.52,1.85,1.52,3.26c0,1.8-0.8,3.19-2.39,4.17c-1.59,0.98-3.88,1.48-6.87,1.48c-4.33,0-7.69-0.95-10.1-2.86l1.55-2.04
			c2.66,1.63,5.51,2.44,8.58,2.44c1.98,0,3.52-0.27,4.62-0.82c1.05-0.53,1.57-1.26,1.57-2.18c0-1.08-0.69-1.8-2.06-2.16
			c-0.72-0.19-2.66-0.38-5.81-0.59c-2.8-0.19-4.76-0.56-5.88-1.12c-1.31-0.66-1.97-1.76-1.97-3.3c0-1.59,0.75-2.85,2.24-3.77
			c1.49-0.92,3.6-1.38,6.31-1.38c3.66,0,6.72,0.84,9.19,2.51L484.1,74.12z"/>
	</g>
	<g>
		<path class="st1" d="M131.72,38.6h-9.18v20.2l-8.33,0.77V6.22c0,0,6.94-1.39,17.27-1.39c14.5,0,20.43,5.63,20.43,16.89
			C151.92,32.89,145.91,38.6,131.72,38.6z M131.72,13c-3.7,0-7.02,0.39-9.18,0.62v16.81h9.18c9.41,0,11.87-3.47,11.87-8.71
			S141.13,13,131.72,13z"/>
		<path class="st1" d="M183.53,4.83V58.8l-8.33,0.77V5.6L183.53,4.83z"/>
		<path class="st1" d="M246.22,58.8h-35.93V5.6h35.93l1.7,8.17h-29.3v13.49h23.98v8.17h-23.98v15.19h29.3L246.22,58.8z"/>
		<path class="st1" d="M305.12,59.57L291.55,38.6h-9.87v20.2l-8.33,0.77V6.22c0,0,6.94-1.39,17.27-1.39
			c14.5,0,20.43,5.63,20.43,16.89c0,8.1-3.16,13.42-10.72,15.58l13.88,21.51L305.12,59.57z M290.86,13c-3.7,0-7.02,0.39-9.18,0.62
			v16.81h10.25c7.79,0,10.79-3.24,10.79-8.71C302.73,16.47,300.27,13,290.86,13z"/>
		<path class="st1" d="M344.37,4.83V58.8l-8.33,0.77V5.6L344.37,4.83z"/>
		<path class="st1" d="M365.11,58.8l26.6-53.97h0.77l26.68,53.97l-8.87,0.77l-5.86-12.26h-24.67l-5.86,12.26L365.11,58.8z
			 M383,40.53h18.27l-9.18-19.2L383,40.53z"/>
		<path class="st1" d="M447.84,23.02V58.8l-8.33,0.77V4.83h0.77l36.55,36.16V5.6l8.33-0.77v54.75h-0.77L447.84,23.02z"/>
	</g>
	<path class="st2" d="M2.81,71.53v16.14h16.82C17.94,79.37,11.23,72.88,2.81,71.53z"/>
	<path class="st2" d="M2.81,52.62v7.61c14.61,1.5,26.3,12.95,28.18,27.45h9.19C38.26,68.46,22.35,53.31,2.81,52.62z"/>
	<g>
		<path class="st3" d="M2.81,71.53v16.14h16.82C17.94,79.37,11.23,72.88,2.81,71.53z"/>
		<path class="st3" d="M2.81,31.28v28.95c14.61,1.5,26.3,12.95,28.18,27.45h23.4v-56.4H2.81z"/>
	</g>
	<g>
		<path class="st4" d="M2.85,37.78L2.81,60.23c14.61,1.5,26.34,12.95,28.22,27.45H52.3C30.11,78.01,12.32,60.07,2.85,37.78z"/>
	</g>
	<g>
		<path class="st5" d="M48.05,5.12C49.58,24.73,65.67,40.3,85.5,41.01V5.12H48.05z"/>
	</g>
	<path class="st6" d="M85.5,22.32c-8.78-1.41-15.7-8.39-17.01-17.2H57.2c1.43,14.99,13.34,26.97,28.3,28.5V22.32z"/>
	<g>
		<path class="st7" d="M68.49,5.12c1.31,8.81,8.23,15.79,17.01,17.2V5.12H68.49z"/>
	</g>
	<path class="st8" d="M85.5,40.97c-19.83-0.7-35.92-16.28-37.45-35.88L36.6,5.12c1.56,25.81,22.87,46.38,48.9,47.09V40.97z"/>
	<path class="st9" d="M76.9,39.72c-12.88-3.54-23.58-14.13-27.44-26.88c-4.04-2.61-8.33-4.32-12.76-6.3c0.47,5.4,1.97,11,4.02,15.78
		c11.2,6.69,20.69,15.96,27.66,26.97c4.82,1.92,10.01,3.11,15.42,3.44C81.7,48.36,79.61,43.7,76.9,39.72z"/>
	<path class="st7" d="M26.33,37.89c6.45,11.28,15.87,20.66,27.19,27.05C47.63,53.25,38.06,43.72,26.33,37.89z"/>
	<g>
		<g>
			<path class="st10" d="M34.81,29.43c-3.69-7.31-5.94-15.47-6.37-24.1h-11.5c0.25,6.03,1.25,11.86,2.9,17.42
				c5.19,1.54,10.23,3.96,14.86,6.57L34.81,29.43z"/>
			<path class="st11" d="M17,5.73c0.25,5.89,1.23,11.59,2.84,17.02c5.19,1.54,10.23,3.96,14.86,6.57l0.11,0.11
				C31.2,22.29,29,14.32,28.57,5.88C28.46,5.82,17.13,5.77,17,5.73z"/>
			<path class="st12" d="M17.07,6.13c0.25,5.75,1.21,11.32,2.78,16.62c5.19,1.54,10.23,3.96,14.86,6.57l0.11,0.11
				c-3.53-6.98-5.68-14.77-6.11-23C28.47,6.31,17.32,6.2,17.07,6.13z"/>
			<path class="st13" d="M17.13,6.53c0.25,5.61,1.18,11.05,2.72,16.23c5.19,1.54,10.23,3.96,14.86,6.57l0.11,0.11
				c-3.44-6.82-5.55-14.42-5.98-22.46C28.49,6.8,17.5,6.64,17.13,6.53z"/>
			<path class="st14" d="M17.19,6.93c0.24,5.47,1.16,10.78,2.66,15.83c5.19,1.54,10.23,3.96,14.86,6.57l0.11,0.11
				c-3.36-6.66-5.43-14.07-5.85-21.91C28.5,7.29,17.69,7.07,17.19,6.93z"/>
			<path class="st15" d="M17.25,7.32c0.24,5.34,1.14,10.51,2.6,15.43c5.19,1.54,10.23,3.96,14.86,6.57l0.11,0.11
				c-3.28-6.49-5.3-13.72-5.72-21.37C28.52,7.77,17.88,7.5,17.25,7.32z"/>
			<path class="st16" d="M17.31,7.72c0.24,5.2,1.11,10.24,2.54,15.04c5.19,1.54,10.23,3.96,14.86,6.57l0.11,0.11
				c-3.2-6.33-5.17-13.37-5.6-20.82C28.53,8.26,18.06,7.94,17.31,7.72z"/>
			<path class="st17" d="M17.37,8.12c0.24,5.06,1.09,9.96,2.48,14.64c5.19,1.54,10.23,3.96,14.86,6.57l0.11,0.11
				c-3.11-6.16-5.04-13.03-5.47-20.28C28.55,8.75,18.25,8.37,17.37,8.12z"/>
			<path class="st18" d="M17.43,8.51c0.24,4.92,1.07,9.69,2.42,14.24c5.19,1.54,10.23,3.96,14.86,6.57l0.11,0.11
				c-3.03-6-4.91-12.68-5.34-19.73C28.56,9.23,18.44,8.8,17.43,8.51z"/>
			<path class="st19" d="M17.49,8.91c0.23,4.79,1.05,9.42,2.36,13.85c5.19,1.54,10.23,3.96,14.86,6.57l0.11,0.11
				c-2.95-5.84-4.78-12.33-5.21-19.19C28.58,9.72,18.62,9.24,17.49,8.91z"/>
			<path class="st20" d="M17.55,9.31c0.23,4.65,1.02,9.15,2.3,13.45c5.19,1.54,10.23,3.96,14.86,6.57l0.11,0.11
				c-2.86-5.67-4.65-11.98-5.08-18.64C28.59,10.21,18.81,9.67,17.55,9.31z"/>
			<path class="st21" d="M17.61,9.7c0.23,4.51,1,8.88,2.24,13.05c5.19,1.54,10.23,3.96,14.86,6.57l0.11,0.11
				c-2.78-5.51-4.52-11.63-4.95-18.09C28.61,10.69,19,10.1,17.61,9.7z"/>
			<path class="st22" d="M17.67,10.1c0.23,4.37,0.98,8.61,2.18,12.66c5.19,1.54,10.23,3.96,14.86,6.57l0.11,0.11
				c-2.7-5.35-4.39-11.28-4.82-17.55C28.62,11.18,19.18,10.54,17.67,10.1z"/>
			<path class="st22" d="M17.73,10.5c0.23,4.23,0.95,8.34,2.12,12.26c5.19,1.54,10.23,3.96,14.86,6.57l0.11,0.11
				c-2.62-5.18-4.26-10.93-4.69-17C28.63,11.67,19.37,10.97,17.73,10.5z"/>
			<path class="st23" d="M17.79,10.89c0.22,4.1,0.93,8.07,2.06,11.86c5.19,1.54,10.23,3.96,14.86,6.57l0.11,0.11
				c-2.53-5.02-4.14-10.58-4.56-16.46C28.65,12.15,19.56,11.4,17.79,10.89z"/>
			<path class="st24" d="M17.85,11.29c0.22,3.96,0.91,7.8,2,11.46c5.19,1.54,10.23,3.96,14.86,6.57l0.11,0.11
				c-2.45-4.85-4.01-10.24-4.43-15.91C28.66,12.64,19.74,11.84,17.85,11.29z"/>
			<path class="st25" d="M17.91,11.69c0.22,3.82,0.88,7.53,1.94,11.07c5.19,1.54,10.23,3.96,14.86,6.57l0.11,0.11
				c-2.37-4.69-3.88-9.89-4.3-15.37C28.68,13.13,19.93,12.27,17.91,11.69z"/>
			<path class="st25" d="M17.97,12.09c0.22,3.68,0.86,7.26,1.88,10.67c5.19,1.54,10.23,3.96,14.86,6.57l0.11,0.11
				c-2.29-4.53-3.75-9.54-4.17-14.82C28.69,13.61,20.12,12.7,17.97,12.09z"/>
			<path class="st26" d="M18.03,12.48c0.22,3.54,0.84,6.99,1.82,10.27c5.19,1.54,10.23,3.96,14.86,6.57l0.11,0.11
				c-2.2-4.36-3.62-9.19-4.05-14.28C28.71,14.1,20.31,13.13,18.03,12.48z"/>
			<path class="st27" d="M18.09,12.88c0.21,3.41,0.81,6.71,1.75,9.88c5.19,1.54,10.23,3.96,14.86,6.57l0.11,0.11
				c-2.12-4.2-3.49-8.84-3.92-13.73C28.72,14.59,20.49,13.57,18.09,12.88z"/>
			<path class="st28" d="M18.15,13.28c0.21,3.27,0.79,6.44,1.69,9.48c5.19,1.54,10.23,3.96,14.86,6.57l0.11,0.11
				c-2.04-4.04-3.36-8.49-3.79-13.18C28.74,15.08,20.68,14,18.15,13.28z"/>
			<path class="st29" d="M18.21,13.67c0.21,3.13,0.77,6.17,1.63,9.08c5.19,1.54,10.23,3.96,14.86,6.57l0.11,0.11
				c-1.96-3.87-3.23-8.14-3.66-12.64C28.75,15.56,20.87,14.43,18.21,13.67z"/>
			<path class="st30" d="M18.28,14.07c0.21,2.99,0.75,5.9,1.57,8.69c5.19,1.54,10.23,3.96,14.86,6.57l0.11,0.11
				c-1.87-3.71-3.1-7.8-3.53-12.09C28.77,16.05,21.05,14.87,18.28,14.07z"/>
			<path class="st31" d="M18.34,14.47c0.21,2.86,0.72,5.63,1.51,8.29c5.19,1.54,10.23,3.96,14.86,6.57l0.11,0.11
				c-1.79-3.55-2.98-7.45-3.4-11.55C28.78,16.54,21.24,15.3,18.34,14.47z"/>
			<path class="st32" d="M18.4,14.86c0.2,2.72,0.7,5.36,1.45,7.89c5.19,1.54,10.23,3.96,14.86,6.57l0.11,0.11
				c-1.71-3.38-2.85-7.1-3.27-11C28.8,17.02,21.43,15.73,18.4,14.86z"/>
			<path class="st33" d="M18.46,15.26c0.2,2.58,0.68,5.09,1.39,7.5c5.19,1.54,10.23,3.96,14.86,6.57l0.11,0.11
				c-1.63-3.22-2.72-6.75-3.14-10.46C28.81,17.51,21.61,16.17,18.46,15.26z"/>
			<path class="st34" d="M18.52,15.66c0.2,2.44,0.65,4.82,1.33,7.1c5.19,1.54,10.23,3.96,14.86,6.57l0.11,0.11
				c-1.54-3.05-2.59-6.4-3.01-9.91C28.83,18,21.8,16.6,18.52,15.66z"/>
			<path class="st35" d="M18.58,16.05c0.2,2.3,0.63,4.55,1.27,6.7c5.19,1.54,10.23,3.96,14.86,6.57l0.11,0.11
				c-1.46-2.89-2.46-6.05-2.88-9.37C28.84,18.48,21.99,17.03,18.58,16.05z"/>
			<path class="st36" d="M18.64,16.45c0.2,2.17,0.61,4.28,1.21,6.3c5.19,1.54,10.23,3.96,14.86,6.57l0.11,0.11
				c-1.38-2.73-2.33-5.7-2.75-8.82C28.86,18.97,22.17,17.47,18.64,16.45z"/>
			<path class="st37" d="M18.7,16.85c0.19,2.03,0.58,4.01,1.15,5.91c5.19,1.54,10.23,3.96,14.86,6.57l0.11,0.11
				c-1.29-2.56-2.2-5.35-2.62-8.28C28.87,19.46,22.36,17.9,18.7,16.85z"/>
			<path class="st38" d="M18.76,17.24c0.19,1.89,0.56,3.73,1.09,5.51c5.19,1.54,10.23,3.96,14.86,6.57l0.11,0.11
				c-1.21-2.4-2.07-5.01-2.5-7.73C28.89,19.94,22.55,18.33,18.76,17.24z"/>
			<path class="st39" d="M18.82,17.64c0.19,1.75,0.54,3.46,1.03,5.11c5.19,1.54,10.23,3.96,14.86,6.57l0.11,0.11
				c-1.13-2.24-1.94-4.66-2.37-7.18C28.9,20.43,22.73,18.77,18.82,17.64z"/>
			<path class="st40" d="M18.88,18.04c0.19,1.61,0.51,3.19,0.97,4.72c5.19,1.54,10.23,3.96,14.86,6.57l0.11,0.11
				c-1.05-2.07-1.81-4.31-2.24-6.64C28.92,20.92,22.92,19.2,18.88,18.04z"/>
			<path class="st41" d="M18.94,18.44c0.19,1.48,0.49,2.92,0.91,4.32c5.19,1.54,10.23,3.96,14.86,6.57l0.11,0.11
				c-0.96-1.91-1.69-3.96-2.11-6.09C28.93,21.41,23.11,19.63,18.94,18.44z"/>
			<path class="st41" d="M19,18.83c0.18,1.34,0.47,2.65,0.85,3.92c5.19,1.54,10.23,3.96,14.86,6.57l0.11,0.11
				c-0.88-1.74-1.56-3.61-1.98-5.55C28.95,21.89,23.29,20.07,19,18.83z"/>
			<path class="st42" d="M19.06,19.23c0.18,1.2,0.45,2.38,0.79,3.53c5.19,1.54,10.23,3.96,14.86,6.57l0.11,0.11
				c-0.8-1.58-1.43-3.26-1.85-5C28.96,22.38,23.48,20.5,19.06,19.23z"/>
			<path class="st43" d="M19.12,19.63c0.18,1.06,0.42,2.11,0.73,3.13c5.19,1.54,10.23,3.96,14.86,6.57l0.11,0.11
				c-0.72-1.42-1.3-2.91-1.72-4.46C28.97,22.87,23.67,20.93,19.12,19.63z"/>
			<path class="st44" d="M19.18,20.02c0.18,0.93,0.4,1.84,0.67,2.73c5.19,1.54,10.23,3.96,14.86,6.57l0.11,0.11
				c-0.63-1.25-1.17-2.56-1.59-3.91C28.99,23.35,23.85,21.37,19.18,20.02z"/>
			<path class="st45" d="M19.24,20.42c0.18,0.79,0.38,1.57,0.6,2.34c5.19,1.54,10.23,3.96,14.86,6.57l0.11,0.11
				c-0.55-1.09-1.04-2.22-1.46-3.37C29,23.84,24.04,21.8,19.24,20.42z"/>
			<path class="st46" d="M19.3,20.82c0.17,0.65,0.35,1.3,0.54,1.94c5.19,1.54,10.23,3.96,14.86,6.57l0.11,0.11
				c-0.47-0.93-0.91-1.87-1.33-2.82C29.02,24.33,24.23,22.23,19.3,20.82z"/>
		</g>
	</g>
	<g>
		<path class="st47" d="M61.94,56.4L62,56.46c2.62,4.6,4.84,9.63,6.4,14.79c5.46,1.61,11.19,2.6,17.1,2.86V62.6
			C77.08,62.15,69.11,59.97,61.94,56.4z"/>
		<path class="st48" d="M61.94,56.4L62,56.46c2.62,4.6,4.84,9.63,6.4,14.79c5.34,1.58,10.94,2.54,16.72,2.81
			c-0.04-0.12-0.08-11.46-0.14-11.57C76.75,62.03,68.95,59.89,61.94,56.4z"/>
		<path class="st49" d="M61.95,56.4L62,56.46c2.62,4.6,4.84,9.63,6.4,14.79c5.22,1.54,10.69,2.49,16.34,2.75
			c-0.07-0.25-0.17-11.41-0.28-11.63C76.42,61.92,68.8,59.82,61.95,56.4z"/>
		<path class="st50" d="M61.95,56.41L62,56.46c2.62,4.6,4.84,9.63,6.4,14.79c5.1,1.51,10.45,2.43,15.96,2.69
			c-0.11-0.37-0.25-11.36-0.42-11.7C76.09,61.8,68.65,59.74,61.95,56.41z"/>
		<path class="st51" d="M61.95,56.41L62,56.46c2.62,4.6,4.84,9.63,6.4,14.79c4.98,1.47,10.2,2.38,15.59,2.64
			c-0.14-0.5-0.33-11.31-0.56-11.76C75.76,61.68,68.49,59.66,61.95,56.41z"/>
		<path class="st52" d="M61.95,56.41L62,56.46c2.62,4.6,4.84,9.63,6.4,14.79c4.86,1.44,9.95,2.32,15.21,2.58
			c-0.18-0.62-0.42-11.26-0.7-11.82C75.42,61.56,68.34,59.59,61.95,56.41z"/>
		<path class="st53" d="M61.95,56.41L62,56.46c2.62,4.6,4.84,9.63,6.4,14.79c4.74,1.4,9.7,2.27,14.83,2.52
			c-0.21-0.74-0.5-11.21-0.84-11.88C75.09,61.44,68.18,59.51,61.95,56.41z"/>
		<path class="st54" d="M61.95,56.41l0.05,0.05c2.62,4.6,4.84,9.63,6.4,14.79c4.62,1.37,9.46,2.21,14.45,2.47
			c-0.25-0.87-0.58-11.16-0.98-11.95C74.76,61.32,68.03,59.43,61.95,56.41z"/>
		<path class="st55" d="M61.95,56.41l0.05,0.05c2.62,4.6,4.84,9.63,6.4,14.79c4.5,1.33,9.21,2.16,14.07,2.41
			c-0.28-0.99-0.67-11.11-1.12-12.01C74.43,61.2,67.87,59.36,61.95,56.41z"/>
		<path class="st56" d="M61.95,56.41l0.05,0.05c2.62,4.6,4.84,9.63,6.4,14.79c4.38,1.29,8.96,2.1,13.69,2.35
			c-0.32-1.12-0.75-11.06-1.26-12.07C74.1,61.08,67.72,59.28,61.95,56.41z"/>
		<path class="st57" d="M61.96,56.42l0.05,0.05c2.62,4.6,4.84,9.63,6.4,14.79c4.26,1.26,8.72,2.05,13.31,2.29
			c-0.35-1.24-0.84-11.01-1.4-12.14C73.77,60.96,67.56,59.21,61.96,56.42z"/>
		<path class="st58" d="M61.96,56.42l0.05,0.05c2.62,4.6,4.84,9.63,6.4,14.79c4.14,1.22,8.47,1.99,12.93,2.24
			c-0.39-1.36-0.92-10.96-1.54-12.2C73.44,60.84,67.41,59.13,61.96,56.42z"/>
		<path class="st59" d="M61.96,56.42l0.05,0.05c2.62,4.6,4.84,9.63,6.4,14.79c4.02,1.19,8.22,1.94,12.55,2.18
			c-0.42-1.49-1-10.91-1.68-12.26C73.11,60.72,67.25,59.05,61.96,56.42z"/>
		<path class="st60" d="M61.96,56.42l0.05,0.05c2.62,4.6,4.84,9.63,6.4,14.79c3.9,1.15,7.97,1.88,12.18,2.12
			c-0.46-1.61-1.09-10.86-1.82-12.32C72.78,60.6,67.1,58.98,61.96,56.42z"/>
		<path class="st61" d="M61.96,56.42l0.05,0.05c2.62,4.6,4.84,9.63,6.4,14.79c3.78,1.12,7.73,1.82,11.8,2.07
			c-0.49-1.73-1.17-10.81-1.96-12.39C72.45,60.48,66.95,58.9,61.96,56.42z"/>
		<path class="st61" d="M61.96,56.42l0.05,0.05c2.62,4.6,4.84,9.63,6.4,14.79c3.66,1.08,7.48,1.77,11.42,2.01
			c-0.53-1.86-1.25-10.76-2.1-12.45C72.12,60.36,66.79,58.82,61.96,56.42z"/>
		<path class="st62" d="M61.96,56.42l0.05,0.05c2.62,4.6,4.84,9.63,6.4,14.79c3.54,1.05,7.23,1.71,11.04,1.95
			c-0.56-1.98-1.34-10.71-2.24-12.51C71.79,60.25,66.64,58.75,61.96,56.42z"/>
		<path class="st63" d="M61.97,56.42l0.05,0.05c2.62,4.6,4.84,9.63,6.4,14.79c3.42,1.01,6.98,1.66,10.66,1.9
			c-0.6-2.11-1.42-10.66-2.38-12.58C71.46,60.13,66.48,58.67,61.97,56.42z"/>
		<path class="st64" d="M61.97,56.43l0.05,0.05c2.62,4.6,4.84,9.63,6.4,14.79c3.29,0.97,6.74,1.6,10.28,1.84
			c-0.63-2.23-1.5-10.61-2.52-12.64C71.13,60.01,66.33,58.6,61.97,56.43z"/>
		<path class="st65" d="M61.97,56.43l0.05,0.05c2.62,4.6,4.84,9.63,6.4,14.79c3.17,0.94,6.49,1.55,9.9,1.78
			c-0.67-2.35-1.59-10.56-2.66-12.7C70.8,59.89,66.17,58.52,61.97,56.43z"/>
		<path class="st66" d="M61.97,56.43l0.05,0.05c2.62,4.6,4.84,9.63,6.4,14.79c3.05,0.9,6.24,1.49,9.52,1.72
			c-0.7-2.48-1.67-10.51-2.8-12.77C70.47,59.77,66.02,58.44,61.97,56.43z"/>
		<path class="st67" d="M61.97,56.43l0.05,0.05c2.62,4.6,4.84,9.63,6.4,14.79c2.93,0.87,6,1.44,9.14,1.67
			c-0.74-2.6-1.75-10.46-2.94-12.83C70.14,59.65,65.86,58.37,61.97,56.43z"/>
		<path class="st68" d="M61.97,56.43l0.05,0.05c2.62,4.6,4.84,9.63,6.4,14.79c2.81,0.83,5.75,1.38,8.76,1.61
			c-0.78-2.73-1.84-10.41-3.08-12.89C69.81,59.53,65.71,58.29,61.97,56.43z"/>
		<path class="st69" d="M61.97,56.43l0.05,0.05c2.62,4.6,4.84,9.63,6.4,14.79c2.69,0.8,5.5,1.33,8.39,1.55
			c-0.81-2.85-1.92-10.36-3.22-12.95C69.48,59.41,65.56,58.22,61.97,56.43z"/>
		<path class="st70" d="M61.98,56.43l0.05,0.05c2.62,4.6,4.84,9.63,6.4,14.79c2.57,0.76,5.25,1.27,8.01,1.5
			c-0.85-2.97-2-10.31-3.36-13.02C69.15,59.29,65.4,58.14,61.98,56.43z"/>
		<path class="st71" d="M61.98,56.44l0.05,0.05c2.62,4.6,4.84,9.63,6.4,14.79c2.45,0.73,5.01,1.21,7.63,1.44
			c-0.88-3.1-2.09-10.26-3.5-13.08C68.82,59.17,65.25,58.06,61.98,56.44z"/>
		<path class="st72" d="M61.98,56.44l0.05,0.05c2.62,4.6,4.84,9.63,6.4,14.79c2.33,0.69,4.76,1.16,7.25,1.38
			c-0.92-3.22-2.17-10.21-3.64-13.14C68.49,59.05,65.09,57.99,61.98,56.44z"/>
		<path class="st34" d="M61.98,56.44l0.05,0.05c2.62,4.6,4.84,9.63,6.4,14.79c2.21,0.65,4.51,1.1,6.87,1.33
			c-0.95-3.35-2.25-10.16-3.78-13.21C68.16,58.93,64.94,57.91,61.98,56.44z"/>
		<path class="st73" d="M61.98,56.44l0.05,0.05c2.62,4.6,4.84,9.63,6.4,14.79c2.09,0.62,4.26,1.05,6.49,1.27
			c-0.99-3.47-2.34-10.11-3.92-13.27C67.83,58.81,64.78,57.83,61.98,56.44z"/>
		<path class="st74" d="M61.98,56.44l0.05,0.05c2.62,4.6,4.84,9.63,6.4,14.79c1.97,0.58,4.02,0.99,6.11,1.21
			c-1.02-3.59-2.42-10.06-4.06-13.33C67.5,58.69,64.63,57.76,61.98,56.44z"/>
		<path class="st75" d="M61.98,56.44l0.05,0.05c2.62,4.6,4.84,9.63,6.4,14.79c1.85,0.55,3.77,0.94,5.73,1.15
			c-1.06-3.72-2.51-10.01-4.2-13.39C67.17,58.57,64.47,57.68,61.98,56.44z"/>
		<path class="st76" d="M61.99,56.44l0.05,0.05c2.62,4.6,4.84,9.63,6.4,14.79c1.73,0.51,3.52,0.88,5.35,1.1
			c-1.09-3.84-2.59-9.96-4.34-13.46C66.83,58.46,64.32,57.61,61.99,56.44z"/>
		<path class="st40" d="M61.99,56.45l0.05,0.05c2.62,4.6,4.84,9.63,6.4,14.79c1.61,0.48,3.27,0.83,4.98,1.04
			c-1.13-3.97-2.67-9.91-4.48-13.52C66.5,58.34,64.16,57.53,61.99,56.45z"/>
		<path class="st77" d="M61.99,56.45l0.05,0.05c2.62,4.6,4.84,9.63,6.4,14.79c1.49,0.44,3.03,0.77,4.6,0.98
			c-1.16-4.09-2.76-9.86-4.62-13.58C66.17,58.22,64.01,57.45,61.99,56.45z"/>
		<path class="st41" d="M61.99,56.45l0.05,0.05c2.62,4.6,4.84,9.63,6.4,14.79c1.37,0.41,2.78,0.72,4.22,0.93
			c-1.2-4.21-2.84-9.81-4.76-13.65C65.84,58.1,63.86,57.38,61.99,56.45z"/>
		<path class="st42" d="M61.99,56.45l0.05,0.05c2.62,4.6,4.84,9.63,6.4,14.79c1.25,0.37,2.53,0.66,3.84,0.87
			c-1.23-4.34-2.92-9.76-4.9-13.71C65.51,57.98,63.7,57.3,61.99,56.45z"/>
		<path class="st43" d="M61.99,56.45l0.05,0.05c2.62,4.6,4.84,9.63,6.4,14.79c1.13,0.33,2.29,0.61,3.46,0.81
			c-1.27-4.46-3.01-9.71-5.04-13.77C65.18,57.86,63.55,57.22,61.99,56.45z"/>
		<path class="st44" d="M61.99,56.45l0.05,0.05c2.62,4.6,4.84,9.63,6.4,14.79c1.01,0.3,2.04,0.55,3.08,0.75
			c-1.3-4.58-3.09-9.66-5.18-13.84C64.85,57.74,63.39,57.15,61.99,56.45z"/>
		<path class="st45" d="M61.99,56.45l0.05,0.05c2.62,4.6,4.84,9.63,6.4,14.79c0.89,0.26,1.79,0.49,2.7,0.7
			c-1.34-4.71-3.17-9.61-5.32-13.9C64.52,57.62,63.24,57.07,61.99,56.45z"/>
		<path class="st46" d="M65.31,57.98C64.19,57.5,63.08,57,62,56.46l0.05,0.05c2.62,4.6,4.84,9.63,6.4,14.79
			c0.77,0.23,1.54,0.44,2.32,0.64C69.4,67.11,67.52,62.38,65.31,57.98z"/>
	</g>
	<g>
		<path class="st7" d="M40.71,22.32c5.37,11.94,14.98,21.73,27.48,26.52C61.21,38.09,51.7,28.96,40.71,22.32z"/>
	</g>
	<g>
		<path class="st9" d="M85.5,62.6c-3.7-0.2-7.31-0.73-10.81-1.57c1.69,4,3.07,8.17,4.11,12.46c2.2,0.31,4.44,0.51,6.7,0.62V62.6z"/>
		<path class="st9" d="M28.44,5.12h-11.5c0.1,2.44,0.33,5.07,0.67,7.45c4.3,1.03,8.45,2.36,12.45,4.03
			C29.18,12.95,28.64,8.99,28.44,5.12z"/>
	</g>
	<path class="st9" d="M62,56.46C50.17,50.61,40.6,41.12,34.7,29.32c-4.64-2.61-9.7-5.04-14.9-6.58c1.56,5.2,3.8,10.47,6.43,15.1
		C38.06,43.69,47.71,53.3,53.6,65.1c4.64,2.61,9.63,4.72,14.83,6.26C66.87,66.16,64.63,61.09,62,56.46z"/>
	<g>
		<path class="st78" d="M26.1,37.5c6.43,11.48,16.13,21.09,27.44,27.48C47.66,53.29,37.83,43.33,26.1,37.5z"/>
	</g>
	<g>
		<path class="st79" d="M36.6,5.12h-8.33C29.8,36.05,54.71,60.96,85.5,62.6V52.21C59.18,51.72,38.16,31.05,36.6,5.12z"/>
	</g>
	<g>
		<path class="st80" d="M16.94,5.34H7.27c2.12,42.22,36.03,76.2,78.23,78.43v-9.66C48.37,72.45,18.5,42.49,16.94,5.34z"/>
		<path class="st80" d="M85.5,83.35v-9.24c-37.13-1.66-67-31.62-68.56-68.77H7.68C9.78,47.33,43.52,81.13,85.5,83.35z"/>
		<path class="st81" d="M85.5,82.93v-8.82c-37.13-1.66-67-31.62-68.56-68.77H8.09C10.17,47.11,43.74,80.72,85.5,82.93z"/>
		<path class="st81" d="M85.5,82.51v-8.4c-37.13-1.66-67-31.62-68.56-68.77H8.49C10.56,46.88,43.95,80.32,85.5,82.51z"/>
		<path class="st82" d="M85.5,82.09v-7.98c-37.13-1.66-67-31.62-68.56-68.77H8.9C10.95,46.65,44.17,79.91,85.5,82.09z"/>
		<path class="st83" d="M85.5,81.67v-7.56c-37.13-1.66-67-31.62-68.56-68.77H9.31C11.34,46.42,44.38,79.5,85.5,81.67z"/>
		<path class="st84" d="M85.5,81.25v-7.14c-37.13-1.66-67-31.62-68.56-68.77H9.71C11.73,46.2,44.6,79.09,85.5,81.25z"/>
		<path class="st85" d="M85.5,80.83v-6.72c-37.13-1.66-67-31.62-68.56-68.77h-6.82C12.12,45.97,44.81,78.68,85.5,80.83z"/>
		<path class="st86" d="M85.5,80.41v-6.3c-37.13-1.66-67-31.62-68.56-68.77h-6.42C12.51,45.74,45.03,78.27,85.5,80.41z"/>
		<path class="st87" d="M85.5,79.99v-5.88c-37.13-1.66-67-31.62-68.56-68.77h-6.01C12.9,45.52,45.24,77.86,85.5,79.99z"/>
		<path class="st88" d="M85.5,79.57v-5.46c-37.13-1.66-67-31.62-68.56-68.77h-5.6C13.29,45.29,45.46,77.46,85.5,79.57z"/>
		<path class="st88" d="M85.5,79.15v-5.03c-37.13-1.66-67-31.62-68.56-68.77h-5.2C13.68,45.06,45.67,77.05,85.5,79.15z"/>
		<path class="st89" d="M85.5,78.73v-4.61c-37.13-1.66-67-31.62-68.56-68.77h-4.79C14.07,44.83,45.89,76.64,85.5,78.73z"/>
		<path class="st90" d="M85.5,78.3v-4.19c-37.13-1.66-67-31.62-68.56-68.77h-4.38C14.46,44.61,46.11,76.23,85.5,78.3z"/>
		<path class="st91" d="M85.5,77.88v-3.77c-37.13-1.66-67-31.62-68.56-68.77h-3.98C14.85,44.38,46.32,75.82,85.5,77.88z"/>
		<path class="st92" d="M85.5,77.46v-3.35c-37.13-1.66-67-31.62-68.56-68.77h-3.57C15.24,44.15,46.54,75.41,85.5,77.46z"/>
		<path class="st93" d="M85.5,77.04v-2.93c-37.13-1.66-67-31.62-68.56-68.77h-3.16C15.63,43.93,46.75,75,85.5,77.04z"/>
		<path class="st94" d="M85.5,76.62v-2.51c-37.13-1.66-67-31.62-68.56-68.77h-2.75C16.02,43.7,46.97,74.6,85.5,76.62z"/>
		<path class="st95" d="M85.5,76.2v-2.09c-37.13-1.66-67-31.62-68.56-68.77H14.6C16.41,43.47,47.18,74.19,85.5,76.2z"/>
		<path class="st96" d="M85.5,75.78v-1.67c-37.13-1.66-67-31.62-68.56-68.77H15C16.8,43.25,47.4,73.78,85.5,75.78z"/>
		<path class="st97" d="M85.5,75.36v-1.25c-37.13-1.66-67-31.62-68.56-68.77h-1.53C17.19,43.02,47.61,73.37,85.5,75.36z"/>
	</g>
	<g>
		<path class="st9" d="M13.51,32.95c4.41,1.06,8.64,2.6,12.61,4.57c-2.63-4.63-4.73-9.58-6.29-14.78c-3.37-1-6.88-1.75-10.44-2.25
			C10.45,24.79,11.83,28.95,13.51,32.95z"/>
		<path class="st9" d="M68.4,71.25c-5.2-1.54-10.24-3.69-14.88-6.3c1.98,3.97,3.53,8.14,4.61,12.55c4.01,1.67,8.27,3.11,12.56,4.14
			C70.18,78.08,69.41,74.61,68.4,71.25z"/>
	</g>
	<path class="st6" d="M76.9,39.72c-7.22-10.72-16.57-19.88-27.44-26.88C53.23,25.94,63.69,36.21,76.9,39.72z"/>
	<g>
		<path class="st6" d="M85.5,56.08c-0.48-1.28-1.38-2.73-1.97-3.98c-5.37-0.41-10.33-1.39-15.31-3.29
			c2.42,3.83,4.68,8.02,6.45,12.24c3.5,0.84,7.19,1.39,10.83,1.59L85.5,56.08z"/>
		<path class="st6" d="M36.71,6.54c-1.01-0.45-2.17-1-3.2-1.42h-5.24c0.19,3.87,0.78,7.78,1.67,11.43
			c3.68,1.53,7.38,3.74,10.78,5.77C38.66,17.54,37.18,11.94,36.71,6.54z"/>
	</g>
	<path class="st98" d="M62,56.46C55.71,46.08,45.22,35.4,34.7,29.32C39.65,41.01,50.17,51.14,62,56.46z"/>
	<g>
		<path class="st6" d="M16.94,5.12H7.27c0.09,1.87,0.25,3.93,0.47,5.77c3.36,0.38,6.65,0.91,9.87,1.68
			C17.27,10.18,17.05,7.58,16.94,5.12z"/>
		<path class="st6" d="M85.5,74.11c-2.27-0.1-4.5-0.31-6.71-0.62c0.79,3.22,1.38,6.51,1.77,9.86c1.63,0.18,3.28,0.33,4.94,0.41
			V74.11z"/>
	</g>
	<path class="st6" d="M47.81,72.35c-5.23-12.6-15.45-22.62-28.19-27.59C26.66,56.06,36.35,65.55,47.81,72.35z"/>
	<g>
		<path class="st7" d="M2.81,37.78c4.74,11.15,11.52,21.2,19.89,29.68s18.33,15.38,29.43,20.21H85.5v-4.14
			c-10.55-0.56-20.58-3.1-29.73-7.26c-9.15-4.16-17.41-9.94-24.42-16.96s-12.77-15.3-16.9-24.46S7.8,15.66,7.27,5.1H2.81V37.78z"/>
		<path class="st99" d="M2.87,5.1c0.02,0.25,0.08,32.41,0.18,32.62c4.73,11.1,11.49,21.12,19.83,29.57S41.15,82.62,52.2,87.44
			c0.22,0.1,33.05,0.16,33.3,0.18v-1.74c-0.02,0-0.04-2.35-0.05-2.35c-10.53-0.56-20.54-3.1-29.67-7.26
			c-9.15-4.16-17.41-9.94-24.42-16.96c-7-7.02-12.75-15.28-16.89-24.43c-0.18-0.4-0.36-0.8-0.53-1.2
			c-3.82-8.82-6.15-18.44-6.66-28.52c0-0.02-2.64-0.04-2.64-0.06L2.87,5.1z"/>
		<path class="st99" d="M2.93,5.1c0.03,0.5,0.16,32.13,0.36,32.57c4.72,11.06,11.46,21.04,19.77,29.46s18.2,15.27,29.21,20.08
			c0.43,0.2,32.73,0.32,33.22,0.35v-1.74c-0.04,0-0.07-2.3-0.11-2.3c-10.51-0.57-20.5-3.11-29.62-7.25
			c-9.15-4.16-17.41-9.93-24.42-16.96c-7-7.01-12.74-15.27-16.88-24.4c-0.18-0.4-0.36-0.8-0.53-1.2C10.13,24.9,7.8,15.3,7.28,5.22
			c0-0.04-2.58-0.08-2.58-0.12L2.93,5.1z"/>
		<path class="st100" d="M3,5.1c0.05,0.75,0.24,31.86,0.54,32.51c4.7,11.02,11.43,20.96,19.71,29.35s18.14,15.22,29.1,20.01
			c0.65,0.3,32.4,0.48,33.15,0.53v-1.74c-0.05,0-0.11-2.24-0.16-2.25c-10.49-0.57-20.47-3.11-29.56-7.25
			c-9.15-4.16-17.41-9.93-24.42-16.96c-6.99-7-12.73-15.25-16.86-24.38c-0.18-0.4-0.36-0.8-0.53-1.2c-3.82-8.8-6.15-18.4-6.68-28.46
			c0-0.06-2.52-0.12-2.52-0.18L3,5.1z"/>
		<path class="st101" d="M3.06,5.1c0.07,1,0.32,31.59,0.72,32.45c4.69,10.98,11.39,20.88,19.65,29.24s18.07,15.16,29,19.95
			c0.86,0.4,32.08,0.64,33.07,0.71v-1.73c-0.07,0-0.14-2.19-0.21-2.19c-10.47-0.58-20.43-3.11-29.51-7.24
			c-9.15-4.16-17.41-9.93-24.42-16.96c-6.98-7-12.72-15.24-16.85-24.35c-0.18-0.4-0.36-0.79-0.53-1.19
			c-3.82-8.79-6.16-18.37-6.69-28.43C7.28,5.26,4.83,5.18,4.82,5.1L3.06,5.1z"/>
		<path class="st101" d="M3.13,5.1c0.09,1.25,0.4,31.32,0.9,32.4c4.68,10.93,11.36,20.8,19.59,29.13s18.01,15.11,28.89,19.88
			c1.08,0.5,31.75,0.81,32.99,0.88v-1.73c-0.09,0-0.18-2.14-0.27-2.14c-10.45-0.58-20.39-3.12-29.46-7.24
			c-9.15-4.16-17.41-9.93-24.42-16.96c-6.97-6.99-12.71-15.22-16.84-24.32c-0.18-0.4-0.36-0.79-0.53-1.19
			c-3.82-8.78-6.16-18.35-6.7-28.39c-0.01-0.1-2.4-0.2-2.4-0.3L3.13,5.1z"/>
		<path class="st102" d="M3.19,5.1c0.1,1.5,0.48,31.04,1.08,32.34C8.95,48.34,15.6,58.16,23.8,66.46s17.94,15.06,28.78,19.81
			c1.29,0.6,31.43,0.97,32.92,1.06V85.6c-0.11-0.01-0.21-2.08-0.32-2.09c-10.43-0.59-20.35-3.12-29.4-7.24
			c-9.15-4.16-17.41-9.93-24.42-16.96c-6.97-6.98-12.7-15.2-16.83-24.29c-0.18-0.4-0.36-0.79-0.53-1.19
			c-3.82-8.77-6.16-18.33-6.7-28.36C7.29,5.34,4.96,5.22,4.95,5.1L3.19,5.1z"/>
		<path class="st103" d="M3.26,5.1c0.12,1.75,0.56,30.77,1.26,32.29c4.66,10.85,11.3,20.64,19.47,28.9s17.87,15,28.67,19.74
			c1.51,0.7,31.1,1.13,32.84,1.24v-1.73c-0.13-0.01-0.25-2.03-0.37-2.04c-10.41-0.59-20.31-3.12-29.35-7.23
			c-9.15-4.16-17.41-9.93-24.42-16.96c-6.96-6.98-12.69-15.19-16.82-24.27c-0.18-0.4-0.36-0.79-0.53-1.19
			C10.19,25.09,7.85,15.54,7.3,5.52C7.29,5.38,5.02,5.24,5.01,5.1L3.26,5.1z"/>
		<path class="st104" d="M3.32,5.1c0.14,2,0.64,30.5,1.44,32.23c4.65,10.81,11.27,20.56,19.41,28.79
			c8.14,8.23,17.81,14.95,28.56,19.68c1.72,0.8,30.78,1.29,32.76,1.41v-1.73c-0.14-0.01-0.29-1.97-0.43-1.99
			c-10.39-0.6-20.28-3.13-29.3-7.23c-9.15-4.16-17.41-9.93-24.42-16.96c-6.95-6.97-12.67-15.17-16.8-24.24
			c-0.18-0.4-0.36-0.79-0.53-1.19c-3.82-8.75-6.16-18.29-6.72-28.3C7.29,5.43,5.08,5.27,5.08,5.1L3.32,5.1z"/>
		<path class="st105" d="M3.39,5.1c0.15,2.25,0.72,30.23,1.62,32.18c4.64,10.76,11.24,20.48,19.35,28.68S42.1,80.85,52.81,85.57
			c1.94,0.89,30.45,1.45,32.69,1.59v-1.73c-0.16-0.01-0.32-1.92-0.48-1.93c-10.37-0.6-20.24-3.13-29.24-7.22
			c-9.15-4.16-17.41-9.93-24.42-16.96C24.41,52.35,18.7,44.16,14.57,35.1c-0.18-0.4-0.36-0.79-0.53-1.19
			c-3.82-8.74-6.17-18.27-6.73-28.27C7.29,5.47,5.15,5.29,5.14,5.11L3.39,5.1z"/>
		<path class="st106" d="M3.45,5.1c0.17,2.5,0.8,29.95,1.8,32.12c4.63,10.72,11.21,20.4,19.29,28.57s17.68,14.84,28.35,19.54
			c2.15,0.99,30.13,1.61,32.61,1.77v-1.73c-0.18-0.01-0.36-1.87-0.54-1.88c-10.35-0.61-20.2-3.13-29.19-7.22
			c-9.15-4.16-17.41-9.93-24.42-16.96c-6.94-6.95-12.65-15.14-16.78-24.18c-0.18-0.39-0.36-0.79-0.53-1.19
			c-3.82-8.73-6.17-18.25-6.74-28.23c-0.02-0.2-2.1-0.4-2.11-0.6L3.45,5.1z"/>
		<path class="st107" d="M3.52,5.1C3.7,7.85,4.39,34.78,5.49,37.17c4.62,10.68,11.18,20.32,19.23,28.46S42.34,80.41,52.97,85.1
			c2.37,1.09,29.8,1.77,32.53,1.95v-1.73c-0.2-0.01-0.39-1.81-0.59-1.83c-10.33-0.62-20.16-3.14-29.14-7.22
			c-9.15-4.16-17.41-9.93-24.42-16.96c-6.93-6.95-12.64-15.12-16.77-24.16c-0.18-0.39-0.36-0.79-0.53-1.19
			c-3.82-8.72-6.17-18.23-6.75-28.2C7.3,5.55,5.27,5.33,5.26,5.11L3.52,5.1z"/>
		<path class="st108" d="M3.58,5.1c0.21,3,0.96,29.41,2.16,32.01c4.61,10.64,11.15,20.24,19.18,28.35s17.55,14.73,28.13,19.41
			c2.58,1.19,29.48,1.93,32.46,2.12v-1.73c-0.21-0.01-0.43-1.76-0.64-1.78c-10.31-0.62-20.12-3.14-29.08-7.21
			c-9.15-4.16-17.41-9.93-24.42-16.96c-6.93-6.94-12.63-15.1-16.75-24.13c-0.18-0.39-0.36-0.79-0.53-1.19
			C10.26,25.28,7.9,15.79,7.32,5.83C7.3,5.59,5.34,5.35,5.33,5.11L3.58,5.1z"/>
		<path class="st109" d="M3.65,5.1c0.22,3.25,1.04,29.14,2.34,31.95c4.6,10.59,11.12,20.15,19.12,28.23s17.48,14.68,28.02,19.34
			c2.8,1.29,29.15,2.1,32.38,2.3V85.2c-0.23-0.01-0.46-1.71-0.7-1.72c-10.29-0.63-20.09-3.14-29.03-7.21
			c-9.15-4.16-17.41-9.93-24.42-16.96c-6.92-6.93-12.62-15.09-16.74-24.1c-0.18-0.39-0.36-0.79-0.53-1.19
			c-3.82-8.7-6.17-18.19-6.76-28.14C7.3,5.63,5.4,5.37,5.39,5.11L3.65,5.1z"/>
		<path class="st110" d="M3.71,5.1C3.95,8.6,4.83,33.97,6.23,37c4.59,10.55,11.09,20.07,19.06,28.12S42.7,79.74,53.2,84.4
			c3.02,1.39,28.83,2.26,32.3,2.48v-1.73c-0.25-0.01-0.5-1.65-0.75-1.67c-10.27-0.63-20.05-3.15-28.98-7.21
			c-9.15-4.16-17.41-9.93-24.42-16.95c-6.91-6.93-12.61-15.07-16.73-24.07c-0.18-0.39-0.36-0.79-0.53-1.19
			c-3.81-8.69-6.17-18.16-6.77-28.1C7.3,5.67,5.47,5.39,5.45,5.11L3.71,5.1z"/>
		<path class="st111" d="M3.77,5.1c0.26,3.75,1.2,28.59,2.7,31.84c4.58,10.51,11.06,19.99,19,28.01s17.35,14.57,27.81,19.21
			c3.23,1.49,28.5,2.42,32.23,2.65v-1.73c-0.27-0.01-0.54-1.6-0.8-1.62c-10.25-0.64-20.01-3.15-28.92-7.2
			c-9.15-4.16-17.41-9.93-24.42-16.95c-6.91-6.92-12.59-15.05-16.72-24.05c-0.18-0.39-0.36-0.79-0.53-1.19
			C10.3,25.4,7.93,15.94,7.33,6.01c-0.02-0.3-1.8-0.6-1.82-0.9L3.77,5.1z"/>
		<path class="st112" d="M3.84,5.1c0.27,4,1.28,28.32,2.88,31.79c4.57,10.47,11.02,19.91,18.94,27.9s17.29,14.51,27.7,19.14
			c3.45,1.59,28.18,2.58,32.15,2.83v-1.73c-0.29-0.02-0.57-1.54-0.86-1.57c-10.24-0.64-19.97-3.15-28.87-7.2
			c-9.15-4.16-17.41-9.93-24.42-16.95c-6.9-6.91-12.58-15.04-16.7-24.02c-0.18-0.39-0.36-0.79-0.53-1.18
			c-3.81-8.67-6.18-18.12-6.79-28.04C7.31,5.75,5.59,5.43,5.58,5.11L3.84,5.1z"/>
		<path class="st113" d="M3.9,5.1C4.2,9.35,5.26,33.15,6.96,36.83c4.56,10.42,10.99,19.83,18.88,27.79s17.22,14.46,27.59,19.07
			c3.66,1.69,27.85,2.74,32.07,3.01v-1.73c-0.3-0.02-0.61-1.49-0.91-1.51c-10.22-0.65-19.93-3.16-28.82-7.19
			c-9.15-4.16-17.41-9.93-24.42-16.95c-6.89-6.91-12.57-15.02-16.69-23.99c-0.18-0.39-0.36-0.79-0.53-1.18
			c-3.81-8.66-6.18-18.1-6.8-28.01c-0.03-0.34-1.68-0.68-1.7-1.02L3.9,5.1z"/>
		<path class="st114" d="M3.97,5.1C4.28,9.6,5.41,32.88,7.2,36.78c4.55,10.38,10.96,19.75,18.82,27.68s17.15,14.41,27.48,19.01
			c3.88,1.79,27.53,2.9,31.99,3.18v-1.73c-0.32-0.02-0.64-1.44-0.96-1.46c-10.2-0.65-19.9-3.16-28.76-7.19
			c-9.15-4.16-17.41-9.93-24.42-16.95c-6.88-6.9-12.56-15-16.68-23.96c-0.18-0.39-0.36-0.79-0.53-1.18
			c-3.81-8.65-6.18-18.08-6.8-27.97C7.31,5.83,5.72,5.47,5.7,5.11L3.97,5.1z"/>
		<path class="st115" d="M4.03,5.1c0.33,4.75,1.52,27.5,3.42,31.62c4.54,10.34,10.93,19.67,18.76,27.57S43.3,78.64,53.58,83.23
			c4.09,1.89,27.2,3.06,31.92,3.36v-1.72c-0.34-0.02-0.68-1.38-1.02-1.41c-10.18-0.66-19.86-3.16-28.71-7.19
			c-9.15-4.16-17.41-9.93-24.42-16.95c-6.88-6.89-12.55-14.99-16.67-23.94c-0.18-0.39-0.36-0.79-0.53-1.18
			c-3.81-8.64-6.18-18.06-6.81-27.94C7.32,5.87,5.79,5.49,5.77,5.11L4.03,5.1z"/>
		<path class="st116" d="M4.1,5.1c0.34,5,1.6,27.23,3.6,31.56c4.53,10.3,10.9,19.59,18.7,27.45s17.02,14.3,27.27,18.87
			c4.31,1.99,26.88,3.22,31.84,3.54V84.8c-0.36-0.02-0.71-1.33-1.07-1.36c-10.16-0.66-19.82-3.17-28.65-7.18
			c-9.15-4.16-17.41-9.93-24.42-16.95c-6.87-6.88-12.54-14.97-16.65-23.91c-0.18-0.39-0.36-0.79-0.53-1.18
			c-3.81-8.63-6.19-18.04-6.82-27.91c-0.03-0.4-1.5-0.8-1.52-1.2L4.1,5.1z"/>
		<path class="st117" d="M4.16,5.1c0.36,5.25,1.68,26.96,3.78,31.51c4.52,10.25,10.87,19.51,18.64,27.34S43.54,78.2,53.74,82.76
			c4.52,2.09,26.55,3.38,31.76,3.71v-1.72c-0.38-0.02-0.75-1.27-1.12-1.31c-10.14-0.67-19.78-3.17-28.6-7.18
			c-9.15-4.16-17.41-9.93-24.42-16.95c-6.86-6.88-12.53-14.95-16.64-23.88c-0.18-0.39-0.36-0.79-0.53-1.18
			C10.37,25.62,8,16.23,7.36,6.37C7.32,5.95,5.91,5.53,5.89,5.11L4.16,5.1z"/>
		<path class="st118" d="M4.23,5.1c0.38,5.5,1.76,26.69,3.96,31.45c4.51,10.21,10.84,19.43,18.58,27.23s16.89,14.19,27.05,18.74
			c4.74,2.19,26.23,3.55,31.69,3.89v-1.72c-0.39-0.02-0.79-1.22-1.18-1.25c-10.12-0.67-19.74-3.17-28.55-7.18
			c-9.15-4.16-17.41-9.93-24.42-16.95c-6.86-6.87-12.51-14.94-16.63-23.85c-0.18-0.39-0.36-0.78-0.53-1.18
			c-3.81-8.61-6.19-18-6.84-27.85c-0.04-0.44-1.38-0.88-1.4-1.32L4.23,5.1z"/>
		<path class="st119" d="M4.29,5.1c0.4,5.75,1.84,26.41,4.14,31.4c4.5,10.17,10.81,19.35,18.52,27.12s16.83,14.14,26.94,18.67
			c4.95,2.29,25.9,3.71,31.61,4.07v-1.72c-0.41-0.02-0.82-1.17-1.23-1.2c-10.1-0.68-19.71-3.18-28.49-7.17
			c-9.15-4.16-17.41-9.93-24.42-16.95c-6.85-6.86-12.5-14.92-16.62-23.83c-0.18-0.39-0.36-0.78-0.53-1.18
			C10.4,25.7,8.02,16.33,7.36,6.49C7.33,6.03,6.04,5.57,6.02,5.11L4.29,5.1z"/>
		<path class="st120" d="M4.36,5.1c0.41,6,1.92,26.14,4.32,31.34c4.49,10.13,10.78,19.27,18.46,27.01s16.76,14.08,26.83,18.6
			c5.17,2.39,25.58,3.87,31.53,4.24v-1.72c-0.43-0.02-0.86-1.11-1.28-1.15c-10.08-0.68-19.67-3.18-28.44-7.17
			c-9.15-4.16-17.41-9.93-24.42-16.95c-6.84-6.86-12.49-14.9-16.6-23.8c-0.18-0.39-0.36-0.78-0.53-1.18
			c-3.81-8.59-6.19-17.95-6.86-27.78C7.33,6.07,6.1,5.59,6.08,5.11L4.36,5.1z"/>
		<path class="st120" d="M4.42,5.1c0.43,6.25,2,25.87,4.5,31.29c4.48,10.08,10.75,19.19,18.4,26.9s16.7,14.03,26.73,18.54
			c5.38,2.49,25.25,4.03,31.46,4.42v-1.72c-0.45-0.02-0.89-1.06-1.34-1.1c-10.06-0.69-19.63-3.18-28.39-7.16
			c-9.15-4.16-17.41-9.93-24.42-16.95c-6.84-6.85-12.48-14.89-16.59-23.77c-0.18-0.39-0.36-0.78-0.53-1.18
			c-3.81-8.58-6.2-17.93-6.86-27.75c-0.04-0.5-1.2-1-1.23-1.5L4.42,5.1z"/>
		<path class="st121" d="M4.48,5.1c0.45,6.5,2.08,25.6,4.68,31.23c4.47,10.04,10.72,19.1,18.34,26.78s16.63,13.97,26.62,18.47
			c5.6,2.59,24.93,4.19,31.38,4.6v-1.72c-0.47-0.02-0.93-1.01-1.39-1.04c-10.04-0.69-19.59-3.19-28.33-7.16
			c-9.15-4.16-17.41-9.93-24.42-16.95c-6.83-6.84-12.47-14.87-16.58-23.75c-0.18-0.39-0.36-0.78-0.53-1.18
			c-3.81-8.57-6.2-17.91-6.87-27.72C7.33,6.16,6.23,5.64,6.21,5.11L4.48,5.1z"/>
		<path class="st122" d="M4.55,5.1c0.46,6.75,2.16,25.33,4.86,31.17c4.46,10,10.69,19.02,18.28,26.67s16.56,13.92,26.51,18.4
			c5.82,2.68,24.6,4.35,31.3,4.78v-1.72c-0.48-0.03-0.97-0.95-1.45-0.99c-10.02-0.7-19.55-3.19-28.28-7.16
			c-9.15-4.16-17.41-9.93-24.42-16.95c-6.82-6.83-12.46-14.85-16.57-23.72c-0.18-0.39-0.36-0.78-0.53-1.18
			c-3.81-8.56-6.2-17.89-6.88-27.68C7.34,6.2,6.3,5.66,6.27,5.11L4.55,5.1z"/>
		<path class="st122" d="M4.61,5.1c0.48,7,2.24,25.05,5.03,31.12c4.45,9.95,10.66,18.94,18.22,26.56s16.5,13.86,26.4,18.34
			c6.03,2.78,24.28,4.51,31.23,4.95v-1.72c-0.5-0.03-1-0.9-1.5-0.94c-10-0.7-19.52-3.19-28.23-7.15
			c-9.15-4.16-17.41-9.93-24.42-16.95c-6.81-6.83-12.45-14.84-16.55-23.69c-0.18-0.39-0.36-0.78-0.53-1.17
			c-3.81-8.55-6.2-17.87-6.89-27.65C7.34,6.24,6.36,5.68,6.33,5.11L4.61,5.1z"/>
		<path class="st123" d="M4.68,5.1C5.18,12.35,7,29.88,9.89,36.16c4.44,9.91,10.62,18.86,18.16,26.45s16.43,13.81,26.29,18.27
			c6.25,2.88,23.95,4.67,31.15,5.13v-1.72c-0.52-0.03-1.04-0.84-1.55-0.89c-9.98-0.71-19.48-3.2-28.17-7.15
			c-9.15-4.16-17.41-9.93-24.42-16.95c-6.81-6.82-12.43-14.82-16.54-23.66c-0.18-0.39-0.36-0.78-0.53-1.17
			c-3.81-8.54-6.2-17.85-6.9-27.62C7.34,6.28,6.42,5.7,6.39,5.12L4.68,5.1z"/>
		<path class="st124" d="M4.74,5.1c0.52,7.5,2.4,24.51,5.39,31.01c4.43,9.87,10.59,18.78,18.1,26.34s16.37,13.76,26.18,18.2
			c6.46,2.98,23.63,4.84,31.07,5.31v-1.72c-0.54-0.03-1.07-0.79-1.61-0.83c-9.96-0.71-19.44-3.2-28.12-7.15
			c-9.15-4.16-17.41-9.93-24.42-16.95c-6.8-6.81-12.42-14.8-16.53-23.64c-0.18-0.39-0.36-0.78-0.53-1.17
			c-3.81-8.53-6.21-17.83-6.91-27.59c-0.05-0.6-0.9-1.2-0.93-1.8L4.74,5.1z"/>
		<path class="st124" d="M4.81,5.1c0.53,7.75,2.48,24.24,5.57,30.95c4.42,9.83,10.56,18.7,18.04,26.23s16.3,13.7,26.08,18.13
			c6.68,3.08,23.31,5,31,5.48v-1.72c-0.56-0.03-1.11-0.74-1.66-0.78c-9.94-0.72-19.4-3.2-28.07-7.14
			c-9.15-4.16-17.41-9.93-24.42-16.95C24.56,52.5,18.95,44.52,14.84,35.7c-0.18-0.39-0.36-0.78-0.53-1.17
			C10.5,26.01,8.1,16.72,7.39,6.97C7.34,6.36,6.55,5.74,6.52,5.12L4.81,5.1z"/>
		<path class="st125" d="M4.87,5.1c0.55,8,2.56,23.96,5.75,30.9c4.41,9.78,10.53,18.62,17.99,26.12s16.24,13.65,25.97,18.07
			c6.89,3.18,22.98,5.16,30.92,5.66v-1.72c-0.57-0.03-1.14-0.68-1.71-0.73c-9.92-0.73-19.36-3.21-28.01-7.14
			c-9.15-4.16-17.41-9.93-24.42-16.95c-6.79-6.8-12.4-14.77-16.5-23.58c-0.18-0.39-0.36-0.78-0.53-1.17
			c-3.8-8.51-6.21-17.79-6.92-27.52C7.35,6.4,6.61,5.76,6.58,5.12L4.87,5.1z"/>
		<path class="st126" d="M4.94,5.1c0.57,8.25,2.64,23.69,5.93,30.84c4.4,9.74,10.5,18.54,17.93,26s16.17,13.59,25.86,18
			c7.11,3.28,22.66,5.32,30.84,5.84v-1.72c-0.59-0.03-1.18-0.63-1.77-0.68c-9.9-0.73-19.33-3.21-27.96-7.13
			c-9.15-4.15-17.41-9.93-24.42-16.95c-6.78-6.79-12.39-14.75-16.49-23.55c-0.18-0.39-0.36-0.78-0.53-1.17
			c-3.8-8.5-6.21-17.76-6.93-27.49C7.35,6.44,6.68,5.78,6.64,5.12L4.94,5.1z"/>
		<path class="st126" d="M5,5.1c0.58,8.5,2.72,23.42,6.11,30.78c4.39,9.7,10.47,18.46,17.87,25.89s16.11,13.54,25.75,17.93
			c7.32,3.38,22.33,5.48,30.77,6.01v-1.71c-0.61-0.03-1.22-0.58-1.82-0.62c-9.88-0.74-19.29-3.22-27.91-7.13
			c-9.15-4.15-17.41-9.93-24.42-16.95c-6.77-6.78-12.38-14.74-16.48-23.53c-0.18-0.39-0.36-0.78-0.53-1.17
			c-3.8-8.49-6.21-17.74-6.94-27.46C7.35,6.48,6.74,5.8,6.71,5.12L5,5.1z"/>
		<path class="st127" d="M5.07,5.1c0.6,8.75,2.8,23.15,6.29,30.73c4.38,9.66,10.44,18.38,17.81,25.78S45.21,75.1,54.81,79.48
			c7.54,3.48,22.01,5.64,30.69,6.19v-1.71c-0.63-0.03-1.25-0.52-1.87-0.57c-9.86-0.74-19.25-3.22-27.85-7.13
			c-9.15-4.15-17.41-9.93-24.42-16.95c-6.77-6.78-12.37-14.72-16.47-23.5c-0.18-0.39-0.36-0.78-0.53-1.17
			c-3.8-8.48-6.22-17.72-6.95-27.43c-0.06-0.7-0.6-1.4-0.64-2.1L5.07,5.1z"/>
		<path class="st128" d="M5.13,5.1c0.62,9,2.88,22.87,6.47,30.67c4.37,9.61,10.41,18.3,17.75,25.67s15.98,13.43,25.54,17.8
			c7.75,3.58,21.68,5.8,30.61,6.37V83.9c-0.64-0.03-1.29-0.47-1.93-0.52c-9.84-0.75-19.21-3.22-27.8-7.12
			c-9.15-4.15-17.41-9.92-24.42-16.94C24.6,52.54,19,44.6,14.91,35.84c-0.18-0.39-0.36-0.78-0.54-1.17
			c-3.8-8.47-6.22-17.7-6.96-27.39C7.36,6.56,6.87,5.84,6.83,5.12L5.13,5.1z"/>
		<path class="st129" d="M5.2,5.1c0.64,9.25,2.96,22.6,6.65,30.62c4.36,9.57,10.38,18.22,17.69,25.56s15.91,13.38,25.43,17.73
			c7.97,3.68,21.36,5.96,30.54,6.54v-1.71c-0.66-0.04-1.32-0.41-1.98-0.47c-9.82-0.75-19.17-3.23-27.74-7.12
			c-9.15-4.15-17.41-9.92-24.42-16.94c-6.75-6.76-12.34-14.69-16.44-23.44c-0.18-0.39-0.36-0.78-0.54-1.17
			c-3.8-8.46-6.22-17.68-6.96-27.36C7.36,6.6,6.93,5.86,6.9,5.12L5.2,5.1z"/>
		<path class="st130" d="M5.26,5.1c0.65,9.5,3.04,22.33,6.83,30.56c4.35,9.53,10.35,18.14,17.63,25.45s15.84,13.32,25.32,17.66
			c8.18,3.78,21.03,6.13,30.46,6.72v-1.71c-0.68-0.04-1.36-0.36-2.03-0.42c-9.8-0.76-19.14-3.23-27.69-7.12
			c-9.15-4.15-17.41-9.92-24.42-16.94c-6.75-6.76-12.33-14.67-16.43-23.42c-0.18-0.39-0.36-0.78-0.54-1.17
			c-3.8-8.45-6.22-17.66-6.97-27.33C7.36,6.64,7,5.88,6.96,5.12L5.26,5.1z"/>
		<path class="st131" d="M5.32,5.1c0.67,9.75,3.12,22.06,7.01,30.51c4.34,9.49,10.32,18.06,17.57,25.33s15.78,13.27,25.21,17.6
			c8.4,3.88,20.71,6.29,30.38,6.9v-1.71c-0.7-0.04-1.39-0.31-2.09-0.36c-9.78-0.76-19.1-3.23-27.64-7.11
			c-9.15-4.15-17.41-9.92-24.42-16.94c-6.74-6.75-12.32-14.65-16.42-23.39c-0.18-0.39-0.36-0.78-0.54-1.17
			c-3.8-8.44-6.22-17.64-6.98-27.3C7.36,6.68,7.06,5.9,7.02,5.12L5.32,5.1z"/>
		<path class="st132" d="M5.39,5.1c0.69,10,3.2,21.79,7.19,30.45C16.91,45,22.87,53.53,30.09,60.77S45.8,73.99,55.19,78.3
			c8.62,3.98,20.38,6.45,30.31,7.07v-1.71c-0.72-0.04-1.43-0.25-2.14-0.31c-9.77-0.77-19.06-3.24-27.58-7.11
			c-9.15-4.15-17.41-9.92-24.42-16.94c-6.73-6.74-12.31-14.64-16.4-23.36c-0.18-0.39-0.36-0.77-0.54-1.16
			c-3.8-8.43-6.23-17.62-6.99-27.26c-0.06-0.8-0.31-1.6-0.35-2.4L5.39,5.1z"/>
		<path class="st133" d="M5.45,5.1c0.7,10.25,3.28,21.51,7.37,30.4c4.32,9.4,10.25,17.89,17.45,25.11s15.65,13.16,24.99,17.46
			c8.83,4.08,20.06,6.61,30.23,7.25v-1.71c-0.73-0.04-1.47-0.2-2.19-0.26c-9.75-0.77-19.02-3.24-27.53-7.1
			c-9.15-4.15-17.41-9.92-24.42-16.94c-6.72-6.73-12.3-14.62-16.39-23.33c-0.18-0.39-0.36-0.77-0.54-1.16
			c-3.8-8.42-6.23-17.6-7-27.23C7.37,6.76,7.19,5.94,7.15,5.12L5.45,5.1z"/>
		<path class="st134" d="M5.52,5.1c0.72,10.5,3.36,21.24,7.55,30.34c4.31,9.36,10.22,17.81,17.39,25s15.58,13.11,24.89,17.4
			c9.05,4.18,19.73,6.77,30.15,7.43v-1.71c-0.75-0.04-1.5-0.15-2.25-0.21c-9.73-0.78-18.98-3.24-27.48-7.1
			c-9.15-4.15-17.41-9.92-24.42-16.94C24.64,52.58,19.07,44.7,14.98,36c-0.18-0.39-0.36-0.77-0.54-1.16
			c-3.8-8.41-6.23-17.58-7.01-27.2C7.37,6.8,7.25,5.96,7.21,5.12L5.52,5.1z"/>
		<path class="st135" d="M85.5,85.21V83.5c-10.55-0.56-20.58-3.1-29.73-7.25c-9.15-4.15-17.41-9.92-24.42-16.94
			s-12.77-15.29-16.9-24.44S7.8,15.68,7.27,5.12L5.58,5.1c0.74,10.75,3.44,20.97,7.73,30.28s10.19,17.73,17.33,24.89
			S46.16,73.33,55.42,77.6C64.69,81.88,74.83,84.53,85.5,85.21z"/>
	</g>
	<path class="st98" d="M40.09,87.68h11.38C49.49,62.28,28.54,42.01,2.81,41.3v11.36C22.33,53.36,38.15,68.48,40.09,87.68z"/>
	<g>
		<path class="st9" d="M7.79,10.85C7.61,8.98,7.37,7,7.27,5.06H2.81v5.37C4.47,10.51,6.15,10.67,7.79,10.85z"/>
		<path class="st9" d="M80.96,87.63h4.54v-4.14c-1.67-0.09-3.32-0.23-4.96-0.42C80.72,84.58,80.86,86.1,80.96,87.63z"/>
	</g>
	<path class="st9" d="M47.68,72.04c-11.2-6.69-20.93-16.25-27.9-27.26c-4.82-1.92-9.85-3.03-15.27-3.36
		c2.09,4.37,4.42,8.61,7.13,12.59c12.88,3.54,23.17,13.71,27.03,26.46c4.04,2.61,8.32,4.94,12.76,6.92
		C50.97,81.99,49.73,76.82,47.68,72.04z"/>
	<path class="st9" d="M9.52,20.51c-2.25-0.32-4.41-0.45-6.73-0.55v11.51c3.8,0.2,7.29,0.67,10.87,1.54
		C11.93,28.99,10.6,24.82,9.52,20.51z"/>
	<path class="st98" d="M19.63,87.68h11.35c-1.87-14.5-13.57-25.95-28.18-27.45v11.31C11.23,72.88,17.94,79.37,19.63,87.68z"/>
	<path class="st9" d="M71.28,87.68c-0.13-2.13-0.32-4.25-0.63-6.33c-4.32-1.04-8.55-2.42-12.58-4.11c0.86,3.36,1.44,6.87,1.7,10.44
		H71.28z"/>
	<g>
		<path class="st136" d="M18.22,87.68h1.41c-0.42-2.08-1.16-4.04-2.16-5.84c-1-1.8-2.26-3.43-3.73-4.84s-3.15-2.61-4.99-3.54
			s-3.84-1.59-5.94-1.92v1.36c1.88,0.41,3.66,1.08,5.3,1.97c1.64,0.89,3.15,1.99,4.49,3.27c1.34,1.28,2.5,2.75,3.45,4.35
			C17,84.09,17.73,85.83,18.22,87.68z"/>
		<path class="st136" d="M2.81,71.79c2.05,0.33,4.04,0.97,5.88,1.9c1.8,0.91,3.45,2.08,4.89,3.46c1.44,1.38,2.68,2.98,3.66,4.74
			c0.46,0.82,0.86,1.67,1.2,2.56c0.4,1.03,0.71,2.11,0.93,3.22l-1.38,0c-0.47-1.79-1.28-3.49-2.2-5.05
			c-0.51-0.85-1.13-1.67-1.75-2.43c-0.51-0.63-1.11-1.23-1.7-1.79c-0.06-0.06-0.13-0.12-0.19-0.18c-0.73-0.68-1.5-1.36-2.33-1.93
			c-0.59-0.41-1.21-0.83-1.85-1.17c-0.17-0.09-0.34-0.19-0.51-0.28c-1.45-0.73-3.01-1.38-4.64-1.73L2.81,71.79z"/>
		<path class="st137" d="M2.81,72.04c1.99,0.32,3.97,0.95,5.81,1.88c1.76,0.89,3.37,2.03,4.78,3.39c1.41,1.35,2.62,2.92,3.58,4.64
			c0.45,0.81,0.85,1.65,1.18,2.53c0.39,1.02,0.7,2.09,0.91,3.19l-1.35,0c-0.46-1.74-1.34-3.39-2.23-4.9
			c-0.49-0.83-1.15-1.62-1.75-2.36c-0.5-0.61-1.13-1.19-1.7-1.74c-0.06-0.06-0.13-0.11-0.19-0.17c-0.71-0.66-1.46-1.37-2.26-1.92
			c-0.58-0.4-1.18-0.85-1.8-1.18c-0.16-0.09-0.33-0.19-0.5-0.28c-1.41-0.71-2.92-1.43-4.5-1.78L2.81,72.04z"/>
		<path class="st138" d="M2.81,72.3c1.93,0.31,3.91,0.92,5.75,1.86c1.72,0.87,3.3,1.99,4.68,3.31c1.38,1.32,2.57,2.85,3.51,4.54
			c0.45,0.8,0.84,1.63,1.17,2.51c0.38,1.01,0.69,2.07,0.89,3.16l-1.32,0c-0.45-1.69-1.39-3.28-2.26-4.75
			c-0.48-0.8-1.17-1.57-1.76-2.29c-0.48-0.59-1.15-1.16-1.7-1.69c-0.06-0.06-0.13-0.11-0.19-0.16c-0.68-0.64-1.42-1.39-2.19-1.92
			C8.83,76.48,8.25,76,7.65,75.67c-0.16-0.09-0.32-0.2-0.48-0.28c-1.37-0.69-2.83-1.48-4.36-1.82L2.81,72.3z"/>
		<path class="st139" d="M2.81,72.56c1.87,0.3,3.84,0.9,5.68,1.83c1.68,0.85,3.22,1.94,4.57,3.24c1.35,1.29,2.51,2.79,3.44,4.43
			c0.45,0.79,0.84,1.62,1.16,2.48c0.38,1,0.67,2.05,0.88,3.13l-1.3,0c-0.43-1.64-1.45-3.18-2.29-4.6c-0.46-0.78-1.19-1.52-1.76-2.22
			c-0.47-0.57-1.16-1.12-1.7-1.63c-0.06-0.05-0.13-0.11-0.19-0.16c-0.66-0.62-1.37-1.4-2.12-1.92c-0.54-0.37-1.1-0.88-1.69-1.2
			c-0.15-0.08-0.31-0.2-0.47-0.28C5.71,75,4.29,74.13,2.81,73.8L2.81,72.56z"/>
		<path class="st140" d="M2.81,72.81c1.81,0.29,3.78,0.88,5.61,1.81c1.64,0.83,3.15,1.9,4.47,3.16c1.32,1.26,2.45,2.72,3.36,4.33
			c0.44,0.78,0.83,1.6,1.15,2.46c0.37,0.99,0.66,2.02,0.86,3.1l-1.27,0c-0.42-1.58-1.51-3.08-2.32-4.45
			c-0.45-0.75-1.21-1.47-1.76-2.15c-0.45-0.56-1.18-1.08-1.7-1.58c-0.05-0.05-0.13-0.1-0.18-0.15c-0.64-0.6-1.33-1.41-2.05-1.91
			c-0.52-0.36-1.07-0.9-1.63-1.21c-0.15-0.08-0.3-0.21-0.45-0.28c-1.28-0.64-2.65-1.59-4.09-1.9L2.81,72.81z"/>
		<path class="st141" d="M2.81,73.07c1.75,0.28,3.71,0.85,5.55,1.79c1.6,0.81,3.07,1.85,4.36,3.09c1.29,1.23,2.4,2.66,3.29,4.23
			c0.44,0.77,0.82,1.58,1.14,2.43c0.37,0.98,0.65,2,0.84,3.07l-1.24,0c-0.4-1.53-1.56-2.97-2.35-4.3c-0.43-0.73-1.23-1.42-1.76-2.08
			c-0.44-0.54-1.19-1.05-1.69-1.53c-0.05-0.05-0.13-0.1-0.18-0.15c-0.62-0.58-1.28-1.42-1.98-1.91c-0.51-0.35-1.03-0.92-1.58-1.22
			c-0.14-0.08-0.29-0.21-0.44-0.29c-1.24-0.62-2.56-1.64-3.95-1.95L2.81,73.07z"/>
		<path class="st142" d="M2.81,73.32c1.68,0.27,3.65,0.83,5.48,1.77c1.56,0.79,3,1.81,4.26,3.01c1.26,1.2,2.34,2.59,3.22,4.13
			c0.43,0.76,0.82,1.56,1.13,2.4c0.36,0.97,0.64,1.98,0.82,3.04l-1.22,0c-0.39-1.48-1.62-2.87-2.38-4.15c-0.42-0.7-1.25-1.37-1.76-2
			c-0.42-0.52-1.21-1.01-1.69-1.47c-0.05-0.05-0.13-0.1-0.18-0.14c-0.6-0.56-1.24-1.44-1.92-1.9c-0.49-0.34-1-0.94-1.52-1.22
			c-0.14-0.08-0.28-0.22-0.42-0.29c-1.2-0.6-2.47-1.7-3.82-1.99L2.81,73.32z"/>
		<path class="st143" d="M2.81,73.58c1.62,0.26,3.58,0.81,5.42,1.74c1.52,0.77,2.92,1.76,4.16,2.93c1.23,1.17,2.29,2.53,3.14,4.02
			c0.43,0.75,0.81,1.54,1.12,2.38c0.36,0.95,0.63,1.96,0.8,3.01l-1.19,0c-0.38-1.42-1.67-2.77-2.41-4c-0.4-0.68-1.27-1.32-1.77-1.93
			c-0.41-0.5-1.23-0.97-1.69-1.42c-0.05-0.05-0.13-0.09-0.18-0.14c-0.58-0.54-1.19-1.45-1.85-1.9c-0.47-0.33-0.96-0.96-1.47-1.23
			c-0.13-0.07-0.27-0.22-0.41-0.29C5.34,76.17,4.11,75,2.81,74.72L2.81,73.58z"/>
		<path class="st144" d="M2.81,73.83c1.56,0.25,3.51,0.78,5.35,1.72c1.48,0.76,2.85,1.72,4.05,2.86c1.2,1.14,2.23,2.47,3.07,3.92
			c0.43,0.74,0.8,1.53,1.11,2.35c0.35,0.94,0.62,1.94,0.79,2.98l-1.16,0c-0.36-1.37-1.73-2.66-2.44-3.86
			c-0.39-0.65-1.29-1.27-1.77-1.86c-0.39-0.48-1.24-0.94-1.69-1.37c-0.05-0.04-0.13-0.09-0.18-0.13c-0.56-0.52-1.15-1.46-1.78-1.9
			c-0.45-0.31-0.92-0.98-1.41-1.24c-0.13-0.07-0.26-0.22-0.39-0.29c-1.11-0.56-2.3-1.8-3.54-2.08L2.81,73.83z"/>
		<path class="st145" d="M2.81,74.09c1.5,0.24,3.45,0.76,5.28,1.7c1.44,0.74,2.77,1.67,3.95,2.78c1.17,1.11,2.18,2.4,3,3.82
			c0.42,0.73,0.79,1.51,1.1,2.33c0.34,0.93,0.6,1.91,0.77,2.95l-1.13,0c-0.35-1.32-1.79-2.56-2.46-3.71
			c-0.37-0.63-1.31-1.22-1.77-1.79c-0.38-0.46-1.26-0.9-1.69-1.32c-0.04-0.04-0.13-0.09-0.18-0.13c-0.53-0.5-1.1-1.48-1.71-1.89
			c-0.44-0.3-0.89-1-1.36-1.25c-0.12-0.07-0.25-0.23-0.38-0.29c-1.07-0.54-2.21-1.86-3.41-2.12L2.81,74.09z"/>
		<path class="st146" d="M2.81,74.35c1.44,0.23,3.38,0.74,5.22,1.68c1.4,0.72,2.7,1.63,3.84,2.71c1.14,1.08,2.12,2.34,2.92,3.72
			c0.42,0.72,0.79,1.49,1.09,2.3c0.34,0.92,0.59,1.89,0.75,2.92l-1.11,0c-0.33-1.27-1.84-2.46-2.49-3.56
			c-0.36-0.6-1.33-1.18-1.77-1.72c-0.36-0.45-1.28-0.87-1.69-1.26c-0.04-0.04-0.13-0.08-0.18-0.12c-0.51-0.48-1.06-1.49-1.64-1.89
			c-0.42-0.29-0.85-1.02-1.3-1.26c-0.12-0.06-0.24-0.23-0.36-0.29c-1.03-0.51-2.12-1.91-3.27-2.16L2.81,74.35z"/>
		<path class="st147" d="M2.82,74.6c1.38,0.22,3.32,0.71,5.15,1.65c1.36,0.7,2.63,1.58,3.74,2.63c1.11,1.05,2.07,2.27,2.85,3.62
			c0.41,0.71,0.78,1.47,1.07,2.28c0.33,0.91,0.58,1.87,0.73,2.89l-1.08,0c-0.32-1.21-1.9-2.36-2.52-3.41
			c-0.34-0.58-1.35-1.13-1.77-1.64c-0.35-0.43-1.29-0.83-1.69-1.21c-0.04-0.04-0.14-0.08-0.18-0.12c-0.49-0.46-1.02-1.5-1.57-1.88
			c-0.4-0.28-0.82-1.03-1.25-1.27c-0.11-0.06-0.23-0.24-0.35-0.3c-0.98-0.49-2.03-1.96-3.13-2.2L2.82,74.6z"/>
		<path class="st148" d="M2.82,74.86c1.32,0.21,3.25,0.69,5.08,1.63c1.32,0.68,2.55,1.54,3.63,2.56c1.08,1.02,2.01,2.21,2.78,3.51
			c0.41,0.7,0.77,1.45,1.06,2.25c0.33,0.9,0.57,1.85,0.71,2.86l-1.05,0c-0.31-1.16-1.95-2.25-2.55-3.26
			c-0.33-0.55-1.37-1.08-1.78-1.57c-0.33-0.41-1.31-0.79-1.69-1.16c-0.04-0.04-0.14-0.08-0.18-0.11c-0.47-0.44-0.97-1.51-1.5-1.88
			c-0.38-0.26-0.78-1.05-1.19-1.27c-0.11-0.06-0.22-0.24-0.33-0.3c-0.94-0.47-1.94-2.01-3-2.25L2.82,74.86z"/>
		<path class="st149" d="M2.82,75.11c1.26,0.2,3.19,0.67,5.02,1.61c1.28,0.66,2.48,1.49,3.53,2.48c1.05,0.99,1.96,2.14,2.7,3.41
			c0.41,0.69,0.77,1.43,1.05,2.23c0.32,0.88,0.56,1.83,0.69,2.83l-1.03,0c-0.29-1.11-2.01-2.15-2.58-3.11
			c-0.31-0.53-1.39-1.03-1.78-1.5c-0.32-0.39-1.33-0.76-1.69-1.1c-0.04-0.04-0.14-0.07-0.18-0.11c-0.45-0.42-0.93-1.53-1.43-1.88
			c-0.37-0.25-0.75-1.07-1.14-1.28c-0.1-0.06-0.21-0.25-0.32-0.3c-0.9-0.45-1.85-2.07-2.86-2.29L2.82,75.11z"/>
		<path class="st150" d="M2.82,75.37c1.2,0.19,3.12,0.64,4.95,1.58c1.24,0.64,2.4,1.45,3.42,2.41c1.02,0.96,1.9,2.08,2.63,3.31
			c0.4,0.69,0.76,1.42,1.04,2.2c0.32,0.87,0.55,1.81,0.68,2.8l-1,0c-0.28-1.06-2.07-2.05-2.61-2.96c-0.3-0.5-1.41-0.98-1.78-1.43
			c-0.3-0.37-1.34-0.72-1.69-1.05c-0.04-0.03-0.14-0.07-0.17-0.1c-0.43-0.4-0.88-1.54-1.37-1.87C6.58,80,6.22,79.16,5.84,78.95
			c-0.1-0.05-0.2-0.25-0.3-0.3c-0.85-0.43-1.76-2.12-2.72-2.33L2.82,75.37z"/>
		<path class="st151" d="M2.82,75.62c1.14,0.18,3.05,0.62,4.89,1.56c1.2,0.62,2.33,1.4,3.32,2.33c0.99,0.93,1.85,2.01,2.56,3.21
			c0.4,0.68,0.75,1.4,1.03,2.18c0.31,0.86,0.53,1.78,0.66,2.77l-0.97,0c-0.26-1-2.12-1.94-2.64-2.81c-0.28-0.48-1.43-0.93-1.78-1.36
			c-0.29-0.35-1.36-0.68-1.69-1c-0.03-0.03-0.14-0.07-0.17-0.1c-0.41-0.38-0.84-1.55-1.3-1.87c-0.33-0.23-0.67-1.11-1.03-1.3
			c-0.09-0.05-0.19-0.25-0.29-0.3c-0.81-0.41-1.67-2.17-2.59-2.37L2.82,75.62z"/>
		<path class="st152" d="M2.82,75.88c1.08,0.17,2.99,0.6,4.82,1.54c1.16,0.6,2.25,1.35,3.21,2.25c0.96,0.9,1.79,1.95,2.48,3.1
			c0.4,0.67,0.75,1.38,1.02,2.15c0.3,0.85,0.52,1.76,0.64,2.73l-0.94,0c-0.25-0.95-2.18-1.84-2.67-2.67
			c-0.27-0.45-1.45-0.88-1.78-1.29c-0.27-0.33-1.37-0.65-1.68-0.95c-0.03-0.03-0.14-0.06-0.17-0.09c-0.38-0.36-0.79-1.57-1.23-1.87
			c-0.31-0.22-0.64-1.13-0.98-1.31c-0.09-0.05-0.18-0.26-0.27-0.3c-0.77-0.39-1.59-2.23-2.45-2.42L2.82,75.88z"/>
		<path class="st153" d="M2.82,76.14c1.02,0.16,2.92,0.57,4.75,1.52c1.12,0.58,2.18,1.31,3.11,2.18c0.93,0.87,1.74,1.88,2.41,3
			c0.39,0.66,0.74,1.36,1.01,2.12c0.3,0.84,0.51,1.74,0.62,2.7l-0.92,0c-0.24-0.9-2.23-1.74-2.7-2.52
			c-0.25-0.43-1.47-0.83-1.79-1.21c-0.26-0.32-1.39-0.61-1.68-0.89c-0.03-0.03-0.14-0.06-0.17-0.09c-0.36-0.34-0.75-1.58-1.16-1.86
			c-0.3-0.2-0.6-1.15-0.92-1.32c-0.08-0.05-0.17-0.26-0.26-0.31c-0.73-0.36-1.5-2.28-2.31-2.46L2.82,76.14z"/>
		<path class="st153" d="M2.82,76.39c0.96,0.15,2.86,0.55,4.69,1.49c1.09,0.56,2.1,1.26,3.01,2.1c0.9,0.84,1.68,1.82,2.34,2.9
			c0.39,0.65,0.73,1.34,1,2.1c0.29,0.83,0.5,1.72,0.6,2.67l-0.89,0c-0.22-0.84-2.29-1.63-2.72-2.37c-0.24-0.4-1.49-0.78-1.79-1.14
			c-0.24-0.3-1.41-0.57-1.68-0.84c-0.03-0.03-0.14-0.05-0.17-0.08c-0.34-0.32-0.7-1.59-1.09-1.86c-0.28-0.19-0.57-1.16-0.87-1.33
			C5.16,80,5.08,79.78,5,79.74c-0.68-0.34-1.41-2.33-2.17-2.5L2.82,76.39z"/>
		<path class="st154" d="M2.82,76.65c0.9,0.14,2.79,0.52,4.62,1.47c1.05,0.54,2.03,1.22,2.9,2.03c0.87,0.81,1.63,1.75,2.26,2.8
			c0.39,0.64,0.73,1.32,0.99,2.07c0.29,0.82,0.49,1.7,0.59,2.64l-0.86,0c-0.21-0.79-2.35-1.53-2.75-2.22
			c-0.22-0.38-1.52-0.73-1.79-1.07c-0.23-0.28-1.42-0.54-1.68-0.79c-0.03-0.03-0.14-0.05-0.17-0.08c-0.32-0.3-0.66-1.6-1.02-1.85
			c-0.26-0.18-0.53-1.18-0.81-1.33c-0.07-0.04-0.15-0.27-0.23-0.31c-0.64-0.32-1.32-2.39-2.04-2.54L2.82,76.65z"/>
		<path class="st155" d="M2.82,76.9c0.84,0.14,2.73,0.5,4.56,1.45c1.01,0.52,1.95,1.17,2.8,1.95c0.84,0.78,1.58,1.69,2.19,2.69
			c0.38,0.63,0.72,1.31,0.98,2.05c0.28,0.8,0.48,1.67,0.57,2.61l-0.84,0c-0.19-0.74-2.4-1.43-2.78-2.07c-0.21-0.35-1.54-0.68-1.79-1
			c-0.21-0.26-1.44-0.5-1.68-0.73c-0.03-0.02-0.14-0.05-0.17-0.07c-0.3-0.28-0.62-1.62-0.95-1.85c-0.24-0.17-0.5-1.2-0.76-1.34
			c-0.07-0.04-0.14-0.28-0.21-0.31c-0.6-0.3-1.23-2.44-1.9-2.59L2.82,76.9z"/>
		<path class="st155" d="M2.82,77.16c0.78,0.13,2.66,0.48,4.49,1.43c0.97,0.5,1.88,1.13,2.69,1.88c0.81,0.75,1.52,1.62,2.12,2.59
			c0.38,0.62,0.71,1.29,0.97,2.02c0.27,0.79,0.46,1.65,0.55,2.58l-0.81,0c-0.18-0.69-2.46-1.33-2.81-1.92
			c-0.19-0.33-1.56-0.63-1.8-0.93c-0.2-0.24-1.46-0.47-1.68-0.68c-0.02-0.02-0.14-0.04-0.17-0.07c-0.28-0.26-0.57-1.63-0.89-1.85
			c-0.23-0.16-0.46-1.22-0.7-1.35c-0.06-0.03-0.13-0.28-0.2-0.31c-0.56-0.28-1.14-2.49-1.76-2.63L2.82,77.16z"/>
		<path class="st156" d="M2.82,77.41c0.72,0.12,2.6,0.45,4.42,1.4c0.93,0.48,1.8,1.08,2.59,1.8c0.78,0.72,1.47,1.56,2.04,2.49
			c0.38,0.61,0.71,1.27,0.95,2c0.27,0.78,0.45,1.63,0.53,2.55l-0.78,0c-0.17-0.63-2.51-1.22-2.84-1.77c-0.18-0.3-1.58-0.58-1.8-0.85
			c-0.18-0.22-1.47-0.43-1.68-0.63c-0.02-0.02-0.14-0.04-0.17-0.06C5.84,84.1,5.57,82.7,5.28,82.5c-0.21-0.14-0.42-1.24-0.65-1.36
			c-0.06-0.03-0.12-0.28-0.18-0.32c-0.51-0.26-1.05-2.55-1.63-2.67L2.82,77.41z"/>
		<path class="st157" d="M2.83,77.67c0.66,0.11,2.53,0.43,4.36,1.38c0.89,0.46,1.73,1.04,2.48,1.73c0.75,0.69,1.41,1.49,1.97,2.39
			c0.37,0.6,0.7,1.25,0.94,1.97c0.26,0.77,0.44,1.61,0.51,2.52l-0.76,0c-0.15-0.58-2.57-1.12-2.87-1.62
			c-0.16-0.28-1.6-0.53-1.8-0.78c-0.17-0.2-1.49-0.39-1.68-0.58c-0.02-0.02-0.14-0.04-0.16-0.06c-0.24-0.22-0.48-1.66-0.75-1.84
			c-0.19-0.13-0.39-1.26-0.59-1.37c-0.05-0.03-0.11-0.29-0.16-0.32c-0.47-0.24-0.96-2.6-1.49-2.72L2.83,77.67z"/>
		<path class="st158" d="M2.83,77.93c0.6,0.1,2.47,0.4,4.29,1.36c0.85,0.44,1.65,0.99,2.38,1.65c0.72,0.66,1.36,1.43,1.9,2.29
			c0.37,0.59,0.69,1.23,0.93,1.95c0.26,0.76,0.43,1.59,0.49,2.49l-0.73,0c-0.14-0.53-2.63-1.02-2.9-1.48
			c-0.15-0.25-1.62-0.49-1.8-0.71c-0.15-0.19-1.51-0.36-1.68-0.52c-0.02-0.02-0.15-0.03-0.16-0.05c-0.21-0.2-0.44-1.67-0.68-1.84
			c-0.17-0.12-0.35-1.28-0.54-1.38c-0.05-0.03-0.1-0.29-0.15-0.32c-0.43-0.21-0.88-2.65-1.35-2.76L2.83,77.93z"/>
		<path class="st159" d="M2.83,78.18c0.54,0.09,2.4,0.38,4.23,1.34c0.81,0.42,1.58,0.95,2.27,1.57c0.69,0.63,1.3,1.36,1.82,2.18
			c0.37,0.58,0.69,1.21,0.92,1.92c0.25,0.75,0.42,1.56,0.48,2.46l-0.7,0c-0.13-0.47-2.68-0.91-2.93-1.33
			c-0.13-0.23-1.64-0.44-1.8-0.64c-0.14-0.17-1.52-0.32-1.68-0.47c-0.02-0.02-0.15-0.03-0.16-0.05C5.08,85,4.88,83.49,4.66,83.34
			c-0.16-0.11-0.32-1.29-0.49-1.39c-0.04-0.02-0.09-0.3-0.13-0.32c-0.38-0.19-0.79-2.71-1.22-2.8L2.83,78.18z"/>
		<path class="st160" d="M2.83,78.44c0.48,0.08,2.33,0.36,4.16,1.31c0.77,0.4,1.51,0.9,2.17,1.5c0.66,0.6,1.25,1.3,1.75,2.08
			c0.36,0.57,0.68,1.2,0.91,1.9c0.25,0.73,0.41,1.54,0.46,2.43l-0.67,0c-0.11-0.42-2.74-0.81-2.96-1.18
			c-0.12-0.2-1.66-0.39-1.81-0.57c-0.12-0.15-1.54-0.28-1.68-0.42C5.15,85.48,5.01,85.47,5,85.45c-0.17-0.16-0.35-1.7-0.54-1.83
			c-0.14-0.1-0.28-1.31-0.43-1.39c-0.04-0.02-0.08-0.3-0.12-0.32c-0.34-0.17-0.7-2.76-1.08-2.84L2.83,78.44z"/>
		<path class="st161" d="M2.83,78.69c0.42,0.07,2.27,0.33,4.09,1.29c0.73,0.38,1.43,0.86,2.07,1.42c0.63,0.57,1.2,1.23,1.68,1.98
			c0.36,0.56,0.67,1.18,0.9,1.87c0.24,0.72,0.39,1.52,0.44,2.4l-0.65,0c-0.1-0.37-2.79-0.71-2.98-1.03c-0.1-0.18-1.68-0.34-1.81-0.5
			C6.46,86,5.01,85.88,4.89,85.77c-0.01-0.01-0.15-0.02-0.16-0.04c-0.15-0.14-0.3-1.71-0.47-1.82c-0.12-0.08-0.24-1.33-0.38-1.4
			c-0.03-0.02-0.07-0.31-0.1-0.32c-0.3-0.15-0.61-2.81-0.94-2.89L2.83,78.69z"/>
		<path class="st162" d="M2.83,78.95c0.36,0.06,2.2,0.31,4.03,1.27c0.69,0.36,1.36,0.81,1.96,1.35c0.6,0.54,1.14,1.17,1.6,1.88
			c0.36,0.55,0.66,1.16,0.89,1.84c0.23,0.71,0.38,1.5,0.42,2.37l-0.62,0c-0.08-0.32-2.85-0.61-3.01-0.88
			c-0.09-0.15-1.7-0.29-1.81-0.42c-0.09-0.11-1.57-0.21-1.67-0.31c-0.01-0.01-0.15-0.02-0.16-0.03c-0.13-0.12-0.26-1.72-0.4-1.82
			c-0.1-0.07-0.21-1.35-0.32-1.41c-0.03-0.02-0.06-0.31-0.09-0.33c-0.26-0.13-0.52-2.87-0.81-2.93L2.83,78.95z"/>
		<path class="st163" d="M2.83,79.2c0.3,0.05,2.14,0.28,3.96,1.24c0.65,0.34,1.28,0.77,1.86,1.27c0.57,0.51,1.09,1.1,1.53,1.77
			c0.35,0.54,0.66,1.14,0.88,1.82c0.23,0.7,0.37,1.48,0.4,2.34l-0.59,0c-0.07-0.26-2.91-0.5-3.04-0.73
			c-0.07-0.13-1.72-0.24-1.81-0.35c-0.08-0.09-1.59-0.18-1.67-0.26c-0.01-0.01-0.15-0.02-0.16-0.03c-0.11-0.1-0.22-1.73-0.34-1.82
			c-0.09-0.06-0.17-1.37-0.27-1.42c-0.02-0.01-0.05-0.32-0.07-0.33c-0.21-0.11-0.43-2.92-0.67-2.97L2.83,79.2z"/>
		<path class="st164" d="M2.83,79.46c0.24,0.04,2.07,0.26,3.89,1.22c0.61,0.32,1.21,0.72,1.75,1.2c0.54,0.48,1.04,1.04,1.46,1.67
			c0.35,0.53,0.65,1.12,0.87,1.79c0.22,0.69,0.36,1.45,0.38,2.31l-0.57,0c-0.06-0.21-2.96-0.4-3.07-0.58
			c-0.06-0.1-1.74-0.19-1.81-0.28c-0.06-0.07-1.6-0.14-1.67-0.21c-0.01-0.01-0.15-0.01-0.16-0.02c-0.09-0.08-0.17-1.75-0.27-1.81
			c-0.07-0.05-0.14-1.39-0.21-1.43C3.4,83.31,3.38,83,3.36,82.99c-0.17-0.09-0.34-2.97-0.53-3.01L2.83,79.46z"/>
		<path class="st165" d="M2.83,79.72c0.18,0.03,2.01,0.23,3.83,1.2c0.57,0.3,1.13,0.67,1.65,1.12c0.51,0.45,0.98,0.97,1.38,1.57
			c0.35,0.52,0.64,1.1,0.86,1.77c0.22,0.68,0.35,1.43,0.37,2.28l-0.54,0c-0.04-0.16-3.02-0.3-3.1-0.43
			c-0.04-0.08-1.76-0.14-1.82-0.21c-0.05-0.06-1.62-0.1-1.67-0.15c-0.01-0.01-0.15-0.01-0.16-0.01c-0.06-0.06-0.13-1.76-0.2-1.81
			C3.38,85,3.33,83.63,3.27,83.6c-0.01-0.01-0.03-0.32-0.04-0.33c-0.13-0.06-0.25-3.02-0.4-3.06L2.83,79.72z"/>
		<path class="st166" d="M2.83,79.97c0.12,0.02,1.95,0.21,3.76,1.18c0.53,0.28,1.06,0.63,1.54,1.05c0.48,0.42,0.93,0.9,1.31,1.47
			c0.34,0.51,0.64,1.09,0.84,1.74c0.21,0.67,0.34,1.41,0.35,2.25l-0.51,0C10.1,87.55,7.05,87.46,7,87.37
			c-0.03-0.05-1.78-0.09-1.82-0.14c-0.03-0.04-1.64-0.07-1.67-0.1c0,0-0.15-0.01-0.16-0.01c-0.04-0.04-0.08-1.77-0.13-1.81
			c-0.03-0.02-0.07-1.42-0.1-1.44c-0.01-0.01-0.02-0.33-0.03-0.33c-0.09-0.04-0.16-3.08-0.26-3.1L2.83,79.97z"/>
		<path class="st167" d="M2.83,80.23c0.06,0.01,1.88,0.18,3.7,1.15c0.49,0.26,0.98,0.58,1.44,0.97c0.45,0.39,0.88,0.84,1.24,1.36
			c0.34,0.5,0.63,1.07,0.83,1.72c0.2,0.65,0.32,1.39,0.33,2.21l-0.48,0c-0.01-0.05-3.13-0.09-3.16-0.14
			c-0.01-0.03-1.8-0.04-1.82-0.06c-0.02-0.02-1.65-0.03-1.67-0.05c0,0-0.15,0-0.15,0c-0.02-0.02-0.04-1.79-0.06-1.8
			C3,85.58,2.99,84.15,2.97,84.14c0,0-0.01-0.33-0.01-0.33c-0.04-0.02-0.08-3.13-0.12-3.14L2.83,80.23z"/>
		<path class="st3" d="M2.83,80.48c0,0,1.81,0.16,3.63,1.13c0.91,0.49,1.81,1.18,2.5,2.16c0.34,0.49,0.62,1.05,0.82,1.69
			c0.2,0.64,0.31,1.37,0.31,2.18l-3.64,0.01l-1.82,0.01l-1.82,0.01l0.01-1.8l0.01-1.8L2.83,80.48z"/>
	</g>
	<line class="st168" x1="7.22" y1="5.12" x2="7.47" y2="8.26"/>
</g>
<g id="Layer_9">
	<path class="st169" d="M78.79,73.52"/>
</g>
<g id="Layer_2">
	<path class="st168" d="M16.94,5.12"/>
	<path class="st168" d="M17.66,12.57c0,0-0.63-4.25-0.67-7.45"/>
	<path class="st9" d="M40.77,22.28c0,0-0.59-0.28-2.45-7.24"/>
</g>
<g id="Layer_3">
	<polygon class="st9" points="40.74,22.34 40.71,22.32 40.57,21.98 40.73,22 	"/>
</g>
<g id="Layer_4">
	<line class="st168" x1="85.5" y1="87.63" x2="80.97" y2="87.63"/>
	<path class="st168" d="M78.81,73.47c0,0,4.6,0.61,6.71,0.62"/>
</g>
<g id="Layer_5">
	<g>
		<g>
			<path class="st9" d="M54.16,65.33c0.64,0,0.64-0.99,0-0.99C53.52,64.34,53.52,65.33,54.16,65.33L54.16,65.33z"/>
		</g>
	</g>
	<g>
		<g>
			<path class="st9" d="M54.06,65.29c0.64,0,0.64-0.99,0-0.99C53.42,64.29,53.42,65.29,54.06,65.29L54.06,65.29z"/>
		</g>
	</g>
	<g>
		<g>
			<path class="st9" d="M54.04,65.29c0.64,0,0.64-0.99,0-0.99C53.4,64.29,53.4,65.29,54.04,65.29L54.04,65.29z"/>
		</g>
	</g>
	<g>
		<g>
			<path class="st9" d="M54.04,65.37c0.99,0.78,2,1.54,3.12,2.12c1.15,0.6,2.39,1.03,3.58,1.52c1.24,0.5,2.47,1.01,3.71,1.51
				c0.59,0.24,1.24,0.28,1.82,0.52c0.49,0.2,0.91,0.52,1.45,0.59c0.62,0.09,0.89-0.87,0.26-0.96c-0.51-0.07-0.91-0.37-1.38-0.56
				c-0.5-0.2-1.05-0.23-1.56-0.42c-1.21-0.43-2.4-0.97-3.59-1.45c-1.2-0.49-2.43-0.93-3.59-1.5c-1.12-0.55-2.14-1.29-3.12-2.06
				C54.24,64.27,53.53,64.97,54.04,65.37L54.04,65.37z"/>
		</g>
	</g>
	<g>
		<g>
			<path class="st9" d="M69.67,81.68c0.06,0.01,0.12,0.02,0.18,0.04c0.04-0.32,0.09-0.65,0.13-0.97c-1.67-0.17-3.2-1-4.85-1.28
				c-0.26-0.05-0.53,0.07-0.61,0.35c-0.07,0.24,0.08,0.56,0.35,0.61c1.74,0.3,3.34,1.13,5.11,1.32c0.55,0.06,0.68-0.86,0.13-0.97
				c-0.06-0.01-0.12-0.02-0.18-0.04c-0.26-0.05-0.54,0.08-0.61,0.35C69.25,81.31,69.41,81.62,69.67,81.68L69.67,81.68z"/>
		</g>
	</g>
	<g>
		<g>
			<path class="st9" d="M61.68,79.13c0.39,0.24,0.84,0.37,1.27,0.51c0.25,0.08,0.55-0.09,0.61-0.35c0.06-0.27-0.08-0.52-0.35-0.61
				c-0.26-0.08-0.53-0.16-0.78-0.27c0.04,0.02,0.08,0.03,0.12,0.05c-0.13-0.05-0.25-0.12-0.37-0.19c-0.22-0.14-0.56-0.05-0.68,0.18
				C61.37,78.7,61.45,78.98,61.68,79.13L61.68,79.13z"/>
		</g>
	</g>
	<g>
		<g>
			<path class="st9" d="M58.5,77.79c0.49,0.29,0.98,0.58,1.47,0.86c0.23,0.13,0.55,0.06,0.68-0.18c0.12-0.24,0.06-0.54-0.18-0.68
				c-0.49-0.28-0.98-0.57-1.47-0.86c-0.22-0.13-0.55-0.06-0.68,0.18C58.2,77.35,58.26,77.64,58.5,77.79L58.5,77.79z"/>
		</g>
	</g>
	<g>
		<g>
			<path class="st9" d="M9.11,21.2c0.59,1.93,1.19,3.86,1.81,5.78c0.29,0.9,0.54,1.83,0.91,2.7c0.33,0.76,1.21,1.43,1.23,2.29
				c0.02,0.64,1.01,0.64,0.99,0c-0.02-0.94-0.61-1.5-1.08-2.24c-0.52-0.82-0.74-1.89-1.03-2.81c-0.64-1.99-1.27-3.98-1.88-5.98
				C9.88,20.33,8.93,20.59,9.11,21.2L9.11,21.2z"/>
		</g>
	</g>
	<g>
		<g>
			<path class="st9" d="M19.28,23.48c0.36,0.88,0.72,1.75,1.08,2.63c0.34,0.83,0.56,1.7,0.9,2.53c0.36,0.85,0.79,1.66,1.14,2.51
				c0.36,0.87,0.68,1.75,1.01,2.63c0.22,0.59,1.18,0.34,0.96-0.26c-0.64-1.72-1.34-3.39-2.11-5.05c-0.37-0.81-0.57-1.7-0.91-2.53
				c-0.37-0.91-0.74-1.81-1.12-2.72C19.99,22.63,19.03,22.89,19.28,23.48L19.28,23.48z"/>
		</g>
	</g>
	<g>
		<g>
			<path class="st9" d="M19.71,23.76c0.64,0,0.64-0.99,0-0.99C19.07,22.77,19.07,23.76,19.71,23.76L19.71,23.76z"/>
		</g>
	</g>
	<g>
		<g>
			<path class="st9" d="M62.94,79.26c0.81,0.4,1.64,0.74,2.49,1.04c0.25,0.09,0.55-0.1,0.61-0.35c0.06-0.28-0.08-0.52-0.35-0.61
				c-0.4-0.14-0.79-0.29-1.18-0.45c-0.11-0.04,0.05,0.02-0.05-0.02c-0.06-0.02-0.11-0.05-0.17-0.07c-0.1-0.04-0.19-0.08-0.29-0.13
				c-0.19-0.09-0.38-0.18-0.57-0.27c-0.23-0.11-0.55-0.07-0.68,0.18C62.65,78.8,62.7,79.14,62.94,79.26L62.94,79.26z"/>
		</g>
	</g>
	<g>
		<g>
			<path class="st9" d="M60.22,78.44c2.59,1.14,5.24,2.12,7.95,2.92c0.61,0.18,0.88-0.77,0.26-0.96c-2.63-0.78-5.21-1.72-7.72-2.82
				C60.14,77.32,59.63,78.18,60.22,78.44L60.22,78.44z"/>
		</g>
	</g>
	<path class="st170" d="M85,74.11c0,3.11,0,6.21,0,9.32"/>
</g>
<g id="Layer_6">
	<g>
		<g>
			<path class="st9" d="M23.45,34.04c0.04,0.04,0.08,0.08,0.12,0.13c-0.05-0.07-0.1-0.13-0.16-0.2c0.08,0.1,0.13,0.21,0.19,0.33
				c-0.03-0.08-0.07-0.16-0.1-0.24c0.2,0.49,0.27,1.03,0.58,1.47c0.23,0.32,0.49,0.57,0.82,0.79c0.21,0.14,0.45,0.25,0.68,0.36
				c0.25,0.11,0.49,0.18,0.77,0.1c0.23-0.06,0.48-0.24,0.6-0.46c0.12-0.23,0.18-0.51,0.1-0.77c-0.08-0.23-0.23-0.49-0.46-0.6
				c-0.29-0.13-0.57-0.27-0.82-0.46c0.07,0.05,0.13,0.1,0.2,0.16c-0.11-0.09-0.21-0.19-0.3-0.3c0.05,0.07,0.1,0.13,0.16,0.2
				c-0.08-0.11-0.14-0.22-0.19-0.34c0.03,0.08,0.07,0.16,0.1,0.24c-0.1-0.25-0.16-0.51-0.25-0.77c-0.14-0.39-0.31-0.76-0.61-1.05
				c-0.37-0.37-1.05-0.4-1.41,0C23.09,33.02,23.05,33.65,23.45,34.04L23.45,34.04z"/>
		</g>
	</g>
	<g>
		<g>
			<path class="st9" d="M24.95,36.07c0.12,0.11,0.22,0.23,0.32,0.36c-0.05-0.07-0.1-0.13-0.16-0.2c0.05,0.07,0.1,0.14,0.15,0.21
				c0.09,0.13,0.17,0.28,0.29,0.38c0.08,0.07,0.17,0.15,0.27,0.2c0.1,0.05,0.21,0.1,0.33,0.13c0.07,0.02,0.14,0.04,0.21,0.06
				c-0.08-0.03-0.16-0.07-0.24-0.1c0.02,0.01,0.05,0.02,0.07,0.03c0.11,0.07,0.24,0.11,0.37,0.12c0.13,0.03,0.27,0.02,0.4-0.02
				c0.13-0.03,0.24-0.09,0.34-0.18c0.11-0.07,0.19-0.16,0.26-0.28c0.12-0.23,0.18-0.51,0.1-0.77c-0.03-0.08-0.07-0.16-0.1-0.24
				c-0.09-0.15-0.21-0.27-0.36-0.36c-0.1-0.06-0.2-0.1-0.31-0.14c-0.03-0.01-0.06-0.02-0.1-0.03c-0.06-0.02-0.13-0.03-0.19-0.06
				c0.08,0.03,0.16,0.07,0.24,0.1c-0.03-0.01-0.05-0.03-0.08-0.04c0.07,0.05,0.13,0.1,0.2,0.16c-0.02-0.02-0.04-0.04-0.06-0.06
				c0.05,0.07,0.1,0.13,0.16,0.2c-0.04-0.06-0.08-0.12-0.12-0.18c-0.09-0.13-0.19-0.25-0.28-0.38c-0.09-0.12-0.2-0.23-0.31-0.34
				c-0.09-0.1-0.2-0.17-0.32-0.21c-0.12-0.06-0.25-0.09-0.39-0.09c-0.14-0.01-0.27,0.02-0.39,0.09c-0.12,0.04-0.23,0.11-0.32,0.21
				c-0.17,0.19-0.3,0.44-0.29,0.71c0.01,0.09,0.02,0.18,0.04,0.27C24.74,35.8,24.82,35.94,24.95,36.07L24.95,36.07z"/>
		</g>
	</g>
	<g>
		<g>
			<path class="st9" d="M27.29,36.03c-0.38-0.76-0.75-1.52-1.1-2.29c-0.1-0.21-0.38-0.4-0.6-0.46c-0.24-0.07-0.56-0.04-0.77,0.1
				c-0.21,0.14-0.4,0.34-0.46,0.6c-0.01,0.09-0.02,0.18-0.04,0.27c0,0.18,0.05,0.35,0.14,0.5c0.35,0.77,0.72,1.54,1.1,2.29
				c0.11,0.22,0.37,0.4,0.6,0.46c0.24,0.07,0.56,0.04,0.77-0.1c0.21-0.14,0.4-0.34,0.46-0.6C27.45,36.53,27.41,36.28,27.29,36.03
				L27.29,36.03z"/>
		</g>
	</g>
</g>
<g id="Layer_7">
	<path class="st169" d="M80.96,87.67h4.55H80.96z"/>
	<path class="st169" d="M80.71,83.59c0,0,4.08,0.41,4.95,0.41l0.02,4.18"/>
	<path class="st169" d="M78.79,73.52"/>
	<line class="st169" x1="85.49" y1="62.64" x2="85.49" y2="74.12"/>
	<polyline class="st169" points="2.77,10.4 2.75,5.05 7.21,5.13 	"/>
</g>
<g id="Layer_8">
	<line class="st169" x1="2.8" y1="19.99" x2="2.82" y2="31.46"/>
	<path class="st169" d="M6.75,5.15c0.2,1.85,0.35,3.7,0.5,5.54"/>
	<path class="st169" d="M17.42,5.03c0,0,0.31,5.62,0.66,7.43"/>
	<path class="st169" d="M78.95,73.03c0,0,3.13,0.58,6.68,0.62"/>
	<line class="st169" x1="80.72" y1="83.62" x2="85.66" y2="84.04"/>
	<path class="st6" d="M85.45,74.2"/>
</g>
<g id="Layer_10">
	<line class="st171" x1="85.24" y1="74.13" x2="85.3" y2="83.44"/>
</g>
</svg>
