<?xml version="1.0" encoding="UTF-8" standalone="no"?>
<!-- Created with Inkscape (http://www.inkscape.org/) -->

<svg
   width="120"
   height="120"
   viewBox="0 0 120 120"
   version="1.1"
   id="svg1"
   xmlns="http://www.w3.org/2000/svg"
   xmlns:svg="http://www.w3.org/2000/svg">
  <defs
     id="defs1" />
  <g
     id="layer1">
    <rect
       style="fill:#000000;fill-opacity:1;stroke-width:0"
       id="rect1"
       width="120.00002"
       height="120"
       x="0.50847459"
       y="0.50847465"
       ry="14.01865" />
    <path
       d="m 99.620722,46.159764 -27.145,32.348 c -0.63281,0.75391 -1.4805,1.1953 -2.3789,1.3555 l 11.621,-31.93 c 1.707,-4.6875 -0.71875,-9.8906 -5.4062,-11.598 l -11.02,-4.0117 7.3711,-8.7852 c 1.4258,-1.7031 3.9648,-1.9219 5.6641,-0.49609 l 20.797,17.449 c 1.703098,1.4258 1.921898,3.9648 0.49609,5.668 z m -25.027,-5.1016 -25.512,-9.2852 c -2.0859,-0.75781 -4.3945,0.31641 -5.1562,2.4023 l -3.9219,10.777 h 11.727 c 4.9883,0 9.0508,4.0586 9.0508,9.0508 v 33.98 c 0.78906,-0.45703 1.4375,-1.1641 1.7734,-2.0898 l 14.441,-39.684 c 0.75781,-2.0859 -0.31641,-4.3945 -2.4023,-5.1562 z m -22.863,8.9258 h -27.148 c -2.2227,0 -4.0234,1.8008 -4.0234,4.0234 v 42.23 c 0,2.2227 1.8008,4.023396 4.0234,4.023396 h 27.148 c 2.2227,0 4.0234,-1.800796 4.0234,-4.023396 v -42.23 c 0,-2.2227 -1.8008,-4.0234 -4.0234,-4.0234 z"
       id="path1"
       style="fill:#ffffff;fill-opacity:1" />
  </g>
</svg>
