<?xml version="1.0" encoding="utf-8"?>
<svg xmlns="http://www.w3.org/2000/svg" viewBox="64.5904 401.4333 329.005 97.4063" width="329.005px" height="97.4063px" xmlns:bx="https://boxy-svg.com">
  <defs>
    <style bx:fonts="Allerta Stencil">@import url(https://fonts.googleapis.com/css2?family=Allerta+Stencil%3Aital%2Cwght%400%2C400&amp;display=swap);</style>
  </defs>
  <g transform="matrix(1, 0, 0, 1, 2.7911510467529297, 203.7538909912109)">
    <g>
      <path style="fill: rgb(0, 0, 0); stroke-width: 0.294; transform-box: fill-box; transform-origin: 50% 50%;" d="M 317.932 167.321 C 330.865 171.9 346.168 181.831 343.103 201.083 C 338.992 226.91 330.776 271.636 328.416 283.756 C 326.964 291.225 323.317 294.082 317.932 294.082 L 311.348 177.856 L 317.932 167.321 Z" transform="matrix(0, 1, -1, 0, 0, 0)"/>
      <path style="fill: rgb(0, 0, 0); stroke-width: 0.294; transform-origin: 305.672px 252.891px;" d="M 298.956 207.725 C 308.179 210.991 319.094 218.074 316.908 231.805 C 313.976 250.224 308.116 282.123 306.433 290.767 C 305.398 296.094 302.796 298.132 298.956 298.132 L 294.26 215.239 L 298.956 207.725 Z" transform="matrix(-0.299204, 0.954189, -0.954189, -0.299204, 0, 0)"/>
      <path style="fill: rgb(0, 0, 0); stroke-width: 0.294; transform-origin: 291.312px 267.094px;" d="M 286.273 232.778 C 293.293 235.263 301.601 240.654 299.937 251.106 C 297.706 265.128 293.245 289.408 291.964 295.989 C 291.175 300.043 289.196 301.594 286.273 301.594 L 282.698 238.497 L 286.273 232.778 Z" transform="matrix(-0.546911, 0.837191, -0.837191, -0.546911, 0, 0)"/>
    </g>
    <g transform="matrix(-1, 0, 0, 1, 452.603546, 1.822872)" style="">
      <path style="fill: rgb(0, 0, 0); stroke-width: 0.294; transform-box: fill-box; transform-origin: 50% 50%;" d="M 317.932 167.321 C 330.865 171.9 346.168 181.831 343.103 201.083 C 338.992 226.91 330.776 271.636 328.416 283.756 C 326.964 291.225 323.317 294.082 317.932 294.082 L 311.348 177.856 L 317.932 167.321 Z" transform="matrix(0, 1, -1, 0, 0, 0)"/>
      <path style="fill: rgb(0, 0, 0); stroke-width: 0.294; transform-origin: 305.672px 252.891px;" d="M 298.956 207.725 C 308.179 210.991 319.094 218.074 316.908 231.805 C 313.976 250.224 308.116 282.123 306.433 290.767 C 305.398 296.094 302.796 298.132 298.956 298.132 L 294.26 215.239 L 298.956 207.725 Z" transform="matrix(-0.299204, 0.954189, -0.954189, -0.299204, 0, 0)"/>
      <path style="fill: rgb(0, 0, 0); stroke-width: 0.294; transform-origin: 291.312px 267.094px;" d="M 286.273 232.778 C 293.293 235.263 301.601 240.654 299.937 251.106 C 297.706 265.128 293.245 289.408 291.964 295.989 C 291.175 300.043 289.196 301.594 286.273 301.594 L 282.698 238.497 L 286.273 232.778 Z" transform="matrix(-0.546911, 0.837191, -0.837191, -0.546911, 0, 0)"/>
    </g>
    <g id="group-5" transform="matrix(3.970706, 0, 0, 3.970706, 178.962173, 189.738007)" style="">
      <path d="M3 10.4167C3 7.21907 3 5.62028 3.37752 5.08241C3.75503 4.54454 5.25832 4.02996 8.26491 3.00079L8.83772 2.80472C10.405 2.26824 11.1886 2 12 2C12.8114 2 13.595 2.26824 15.1623 2.80472L15.7351 3.00079C18.7417 4.02996 20.245 4.54454 20.6225 5.08241C21 5.62028 21 7.21907 21 10.4167C21 10.8996 21 11.4234 21 11.9914C21 17.6294 16.761 20.3655 14.1014 21.5273C13.38 21.8424 13.0193 22 12 22C10.9807 22 10.62 21.8424 9.89856 21.5273C7.23896 20.3655 3 17.6294 3 11.9914C3 11.4234 3 10.8996 3 10.4167Z" fill="#000000"/>
    </g>
    <text style="fill: rgb(244, 239, 239); font-family: &quot;Allerta Stencil&quot;; font-size: 53.4px; white-space: pre;" x="207.277" y="252.976">A</text>
  </g>
</svg>

